<svg width="120" height="120" viewBox="0 0 120 120" fill="none" xmlns="http://www.w3.org/2000/svg">
<path d="M78.5049 32.2979H21.0387C20.0637 32.2979 19.2734 33.0882 19.2734 34.0632C19.2734 35.0382 20.0637 35.8285 21.0387 35.8285H78.5051C79.4801 35.8285 80.2704 35.0382 80.2704 34.0632C80.2704 33.0882 79.4799 32.2979 78.5049 32.2979Z" fill="black"/>
<path d="M21.0387 23.583H49.7717C50.7467 23.583 51.537 22.7927 51.537 21.8177C51.537 20.8427 50.7467 20.0524 49.7717 20.0524H21.0387C20.0637 20.0524 19.2734 20.8427 19.2734 21.8177C19.2734 22.7929 20.0637 23.583 21.0387 23.583V23.583Z" fill="black"/>
<path d="M78.5049 43.1476H21.0387C20.0637 43.1476 19.2734 43.9379 19.2734 44.9129C19.2734 45.8879 20.0637 46.6782 21.0387 46.6782H78.5051C79.4801 46.6782 80.2704 45.8879 80.2704 44.9129C80.2702 43.9379 79.4799 43.1476 78.5049 43.1476Z" fill="black"/>
<path d="M34.1292 107.735H15.7385C12.72 107.735 10.264 105.279 10.264 102.26V9.00492C10.264 5.98641 12.72 3.53039 15.7385 3.53039H68.7204C68.8915 3.53039 69.06 3.54609 69.2266 3.56859V14.5781C69.2266 19.5436 73.2663 23.583 78.2316 23.583H89.2408C89.2636 23.7499 89.2791 23.9184 89.2791 24.0895V54.1507C89.2791 55.1257 90.0694 55.916 91.0444 55.916C92.0194 55.916 92.8097 55.1257 92.8097 54.1507V24.0898C92.8097 22.1534 92.0555 20.3327 90.6862 18.9633L73.8464 2.12344C72.4772 0.754219 70.6568 0 68.7204 0H15.7385C10.773 0 6.73358 4.03969 6.73358 9.00492V102.26C6.73358 107.226 10.7733 111.265 15.7385 111.265H34.1292C35.1042 111.265 35.8945 110.475 35.8945 109.5C35.8945 108.525 35.1042 107.735 34.1292 107.735V107.735ZM86.7827 20.0527H78.2318C75.2133 20.0527 72.7573 17.5966 72.7573 14.5781V6.02719L86.7827 20.0527Z" fill="black"/>
<path d="M112.724 86.4209L97.7671 61.174C96.6771 59.3332 94.3047 58.7248 92.463 59.8158L88.8248 61.9714C86.0008 63.6443 84.8071 67.0299 85.7768 70.0301C84.551 70.4742 83.2071 70.4672 81.9696 69.9888C79.0971 69.0851 76.9132 67.2671 73.3064 68.1792C67.1821 69.7385 67.3682 69.6605 66.8142 69.8503C63.2282 67.8087 61.0727 67.2012 57.266 68.6738L53.8727 69.9856C52.3017 70.5926 50.5706 70.4487 49.1189 69.5885L48.1928 69.0427C48.6447 66.3352 47.444 63.4779 44.9015 61.9718C44.9015 61.9718 44.9015 61.9718 44.9013 61.9716L41.2633 59.8163C39.4268 58.7285 37.0474 59.3374 35.9594 61.174L21.0016 86.4211C19.9115 88.2614 20.5181 90.6345 22.3593 91.725L25.9973 93.8803C27.0982 94.5326 28.308 94.8427 29.5033 94.8427C30.8362 94.8427 32.1503 94.4564 33.2739 93.7289L34.0321 94.1764L32.4314 96.406C30.5238 99.0633 31.1299 102.758 33.7877 104.666C35.0167 105.548 36.5608 105.951 38.1576 105.701C38.411 107.182 39.2224 108.568 40.5363 109.511C41.7703 110.397 43.3073 110.801 44.9069 110.549C45.161 112.028 45.9719 113.413 47.2851 114.356C49.05 115.623 51.2442 115.77 53.0725 114.989C53.4726 116.028 54.168 116.966 55.1381 117.663C57.6712 119.481 61.1606 119.007 63.1289 116.651L67.3828 119.171C70.196 120.838 73.8257 119.912 75.4938 117.095C75.9203 116.375 76.185 115.591 76.2818 114.784L76.2914 114.79C79.1003 116.454 82.7383 115.522 84.4024 112.714C84.8843 111.9 85.1484 111.018 85.2126 110.134C87.6886 110.756 90.3869 109.716 91.7533 107.41C92.2017 106.654 92.4616 105.836 92.5471 105.014C95.2007 106.055 98.3022 105.049 99.8008 102.519C100.607 101.159 100.835 99.566 100.443 98.0339C100.218 97.1574 99.806 96.3617 99.2397 95.6897L101.584 94.3198C103.568 95.134 105.832 95.0037 107.729 93.8801L111.366 91.7248C113.207 90.6349 113.816 88.2624 112.724 86.4209V86.4209ZM27.7968 90.8431L24.1589 88.6875C23.9971 88.5917 23.9435 88.3821 24.0391 88.2204L38.9969 62.9728C39.0932 62.8104 39.3035 62.7577 39.4642 62.8533L43.102 65.0084C44.7185 65.9663 45.2243 68.0396 44.2839 69.6265L32.415 89.6609C31.4676 91.2603 29.3962 91.7902 27.7968 90.8431V90.8431ZM35.8464 101.798C34.7744 101.029 34.5292 99.5374 35.2994 98.4649L37.6523 95.1874C38.4018 94.1433 39.8955 93.8576 40.9856 94.6402C42.0555 95.4082 42.3009 96.9033 41.5331 97.9732L39.18 101.251C38.4119 102.321 36.9159 102.566 35.8464 101.798V101.798ZM42.5953 106.643C41.5253 105.875 41.28 104.38 42.048 103.31L44.4009 100.033C44.4009 100.033 44.4009 100.033 44.4009 100.032C44.4009 100.032 44.4009 100.032 44.4011 100.032L46.9978 96.4153C47.37 95.8971 47.9214 95.5545 48.551 95.4514C48.6817 95.4298 48.8128 95.4192 48.9428 95.4192C49.4383 95.4192 49.9204 95.5735 50.331 95.8681C50.849 96.2403 51.1917 96.7915 51.2948 97.421C51.3982 98.0508 51.2503 98.6829 50.8781 99.2011L45.9283 106.096C45.1591 107.168 43.6678 107.414 42.5953 106.643V106.643ZM49.3441 111.488C48.2746 110.72 48.029 109.226 48.7957 108.156C48.7959 108.156 48.7964 108.155 48.7966 108.155L53.7464 101.26C54.5139 100.191 56.0102 99.945 57.0796 100.713C58.1496 101.481 58.395 102.976 57.6269 104.046L55.4278 107.11C55.4278 107.11 55.4278 107.11 55.4275 107.11L52.6771 110.941C51.9091 112.011 50.4143 112.257 49.3441 111.488V111.488ZM57.1971 114.795C56.1278 114.027 55.882 112.533 56.6482 111.463L58.2956 109.169C59.0634 108.099 60.5594 107.854 61.6289 108.622C62.6986 109.389 62.9442 110.885 62.1761 111.955L60.5301 114.247C59.7623 115.317 58.2665 115.563 57.1971 114.795V114.795ZM96.764 100.72C96.0923 101.854 94.6242 102.23 93.4903 101.558C91.5703 100.421 79.185 93.0832 77.8645 92.3009C77.0254 91.804 75.9428 92.0808 75.446 92.9196C74.9491 93.7585 75.2259 94.8413 76.0647 95.3381L87.8779 102.337L87.8782 102.337C89.0123 103.009 89.3906 104.472 88.7163 105.611C88.0443 106.745 86.5755 107.12 85.4421 106.449C81.0728 103.861 77.5251 101.759 73.6225 99.447C72.7832 98.9501 71.7009 99.2269 71.204 100.066C70.7071 100.905 70.9839 101.987 71.8228 102.484L80.527 107.641L80.5289 107.642C81.6637 108.316 82.0382 109.779 81.3653 110.915C80.6934 112.049 79.225 112.425 78.0909 111.753L73.4196 108.986C73.4191 108.986 73.4184 108.986 73.4179 108.985C73.4175 108.985 73.417 108.985 73.4165 108.984L70.0075 106.965C69.1685 106.467 68.0859 106.744 67.589 107.583C67.0921 108.422 67.3689 109.505 68.2078 110.002L71.6175 112.022C71.6179 112.022 71.6184 112.023 71.6189 112.023C72.753 112.695 73.1313 114.158 72.457 115.297C71.785 116.431 70.3167 116.806 69.1825 116.135L65.205 113.779C66.91 111.147 66.2615 107.602 63.6878 105.754C62.932 105.212 62.0903 104.874 61.2295 104.729C62.1426 102.288 61.3553 99.4374 59.1384 97.846C57.8259 96.9033 56.2544 96.5778 54.7713 96.8103C54.5074 95.2669 53.6634 93.915 52.39 93.0012C49.9952 91.2825 46.7407 91.6128 44.7304 93.6464C44.3219 92.929 43.758 92.2854 43.0446 91.7733C41.0545 90.345 38.4707 90.3317 36.5006 91.5347L35.6917 91.0573L46.7941 72.3169L47.3226 72.6286C49.657 74.0114 52.5056 74.2997 55.1456 73.2788L58.5389 71.967C60.4807 71.2165 61.5515 71.1675 63.4722 72.0739C62.2155 73.4857 61.4695 75.3394 61.4695 77.3372V85.1642C61.4695 87.2431 63.1596 88.9355 65.2368 88.9369H65.242C67.3256 88.9369 69.285 88.1257 70.7589 86.6527C71.6182 85.7939 72.2524 84.7702 72.6325 83.6527C74.9118 85.0024 93.7432 96.1538 95.9264 97.4473C96.4755 97.7726 96.865 98.2922 97.0232 98.9105C97.1814 99.5281 97.0893 100.171 96.764 100.72V100.72ZM109.567 88.6875L105.929 90.8431C104.33 91.7899 102.258 91.2596 101.312 89.6611L95.7485 80.2709C95.2514 79.4321 94.1681 79.1553 93.33 79.6517C92.4911 80.1485 92.2141 81.2313 92.7107 82.0702L98.2739 91.4606C98.3786 91.6374 98.4923 91.8054 98.61 91.9692L97.0633 92.8728C96.7507 93.0579 96.45 93.2618 96.1624 93.4833L72.1804 79.2813C71.0055 78.586 69.5158 79.4337 69.5158 80.8001C69.4973 80.9056 69.6982 82.7201 68.2631 84.1547C67.4559 84.9612 66.3829 85.4056 65.2417 85.4056C65.2408 85.4056 65.2399 85.4056 65.2389 85.4056C65.107 85.4056 64.9996 85.2968 64.9996 85.1632V77.3363C64.9996 75.2916 66.4064 73.5666 68.3088 73.0849L74.1719 71.6011C76.2993 71.0635 77.5019 72.1995 80.6873 73.2776C82.8986 74.1331 85.3031 74.0803 87.4373 73.1689L88.5028 74.9674C88.9999 75.8067 90.0827 76.0833 90.9213 75.5867C91.7601 75.0898 92.0371 74.007 91.5405 73.1681L89.4419 69.626C88.4925 68.0234 89.0214 65.9581 90.6239 65.0082L94.2618 62.8531C94.4207 62.7586 94.631 62.8069 94.7294 62.9728L109.687 88.2199C109.783 88.3828 109.73 88.5912 109.567 88.6875V88.6875Z" fill="black"/>
</svg>
