<svg width="772" height="752" viewBox="0 0 772 752" fill="none" xmlns="http://www.w3.org/2000/svg">
  <path d="M368.26 81.2234C292.263 82.9093 245.338 95.3964 223.79 159.31C200.452 228.534 280.27 276.929 227.376 319.759C209.353 334.353 179.111 344.169 161.426 344.285C98.2214 334.35 52.786 378.983 41.8266 433.423C44.5522 482.367 58.1659 505.799 110.183 562.078C150.472 605.667 199.694 628.529 279.731 641.309C359.768 654.088 399.259 594.946 476.728 604.429C585.722 617.77 676.733 520.018 698.06 406.411C713.456 324.399 712.914 272.733 592.001 161.533C522.324 105.418 444.257 79.5375 368.26 81.2234Z" fill="#8AAFD2" fill-opacity="0.3"/>
  <g clip-path="url(#clip0)">
    <path d="M437.291 395.641H286.709C286.182 395.64 285.677 395.482 285.305 395.2C284.932 394.917 284.723 394.535 284.722 394.136V268.668C284.723 268.269 284.932 267.886 285.305 267.604C285.677 267.322 286.182 267.164 286.709 267.163H437.291C437.818 267.164 438.323 267.322 438.695 267.604C439.068 267.886 439.277 268.269 439.278 268.668V394.136C439.277 394.535 439.068 394.917 438.695 395.2C438.323 395.482 437.818 395.64 437.291 395.641Z" fill="white"/>
    <path d="M437.291 395.641H286.709C286.182 395.64 285.677 395.482 285.305 395.2C284.932 394.917 284.723 394.535 284.722 394.136V268.668C284.723 268.269 284.932 267.886 285.305 267.604C285.677 267.322 286.182 267.164 286.709 267.163H437.291C437.818 267.164 438.323 267.322 438.695 267.604C439.068 267.886 439.277 268.269 439.278 268.668V394.136C439.277 394.535 439.068 394.917 438.695 395.2C438.323 395.482 437.818 395.64 437.291 395.641ZM286.709 267.765C286.393 267.765 286.09 267.861 285.866 268.03C285.643 268.199 285.517 268.428 285.517 268.668V394.136C285.517 394.376 285.643 394.605 285.866 394.774C286.09 394.943 286.393 395.039 286.709 395.039H437.291C437.607 395.039 437.91 394.943 438.134 394.774C438.357 394.605 438.483 394.376 438.483 394.136V268.668C438.483 268.428 438.357 268.199 438.134 268.03C437.91 267.861 437.607 267.765 437.291 267.765H286.709Z" fill="#3F3D56"/>
    <path d="M351.67 315.004H314.322C313.795 315.003 313.291 314.845 312.918 314.563C312.546 314.281 312.336 313.898 312.336 313.499V285.216C312.336 284.817 312.546 284.435 312.918 284.153C313.291 283.871 313.795 283.712 314.322 283.712H351.67C352.196 283.712 352.701 283.871 353.074 284.153C353.446 284.435 353.656 284.817 353.656 285.216V313.499C353.656 313.898 353.446 314.281 353.074 314.563C352.701 314.845 352.196 315.003 351.67 315.004ZM314.322 284.314C314.006 284.314 313.703 284.409 313.48 284.578C313.256 284.748 313.131 284.977 313.13 285.216V313.499C313.131 313.739 313.256 313.968 313.48 314.137C313.703 314.307 314.006 314.402 314.322 314.402H351.67C351.986 314.402 352.289 314.307 352.512 314.137C352.736 313.968 352.861 313.739 352.862 313.499V285.216C352.861 284.977 352.736 284.748 352.512 284.578C352.289 284.409 351.986 284.314 351.67 284.314H314.322Z" fill="#F2F2F2"/>
    <path d="M340.942 318.464H303.595C303.121 318.464 302.666 318.321 302.331 318.067C301.996 317.813 301.807 317.469 301.807 317.11V288.827C301.807 288.468 301.996 288.124 302.331 287.87C302.666 287.616 303.121 287.473 303.595 287.473H340.942C341.416 287.473 341.871 287.616 342.206 287.87C342.541 288.124 342.73 288.468 342.73 288.827V317.11C342.73 317.469 342.541 317.813 342.206 318.067C341.871 318.321 341.416 318.464 340.942 318.464Z" fill="#8988D8"/>
    <path d="M420.405 332.305H303.595C303.36 332.305 303.127 332.27 302.909 332.202C302.692 332.134 302.495 332.035 302.328 331.909C302.162 331.783 302.03 331.634 301.94 331.469C301.849 331.305 301.803 331.129 301.803 330.951C301.803 330.773 301.849 330.596 301.94 330.432C302.03 330.267 302.162 330.118 302.328 329.992C302.495 329.866 302.692 329.767 302.909 329.699C303.127 329.631 303.36 329.596 303.595 329.597H420.405C420.879 329.597 421.334 329.739 421.67 329.993C422.005 330.247 422.193 330.592 422.193 330.951C422.193 331.31 422.005 331.654 421.67 331.908C421.334 332.162 420.879 332.305 420.405 332.305V332.305Z" fill="#CCCCCC"/>
    <path d="M392.196 341.632H303.595C303.36 341.632 303.127 341.598 302.909 341.53C302.692 341.462 302.495 341.362 302.328 341.236C302.162 341.111 302.03 340.961 301.94 340.797C301.849 340.632 301.803 340.456 301.803 340.278C301.803 340.1 301.849 339.924 301.94 339.759C302.03 339.595 302.162 339.445 302.328 339.32C302.495 339.194 302.692 339.094 302.909 339.026C303.127 338.958 303.36 338.924 303.595 338.924H392.196C392.67 338.924 393.125 339.067 393.46 339.321C393.795 339.575 393.984 339.919 393.984 340.278C393.984 340.637 393.795 340.982 393.46 341.235C393.125 341.489 392.67 341.632 392.196 341.632V341.632Z" fill="#CCCCCC"/>
    <path d="M420.008 298.004H368.357C367.883 298.004 367.428 297.861 367.093 297.607C366.757 297.353 366.569 297.009 366.569 296.65C366.569 296.291 366.757 295.946 367.093 295.692C367.428 295.439 367.883 295.296 368.357 295.296H420.008C420.243 295.296 420.476 295.33 420.693 295.398C420.911 295.466 421.108 295.566 421.275 295.691C421.441 295.817 421.573 295.967 421.663 296.131C421.753 296.296 421.8 296.472 421.8 296.65C421.8 296.828 421.753 297.004 421.663 297.169C421.573 297.333 421.441 297.483 421.275 297.608C421.108 297.734 420.911 297.834 420.693 297.902C420.476 297.969 420.243 298.004 420.008 298.004Z" fill="#8988D8"/>
    <path d="M407.118 307.331H368.357C367.883 307.331 367.428 307.189 367.093 306.935C366.757 306.681 366.569 306.336 366.569 305.977C366.569 305.618 366.757 305.274 367.093 305.02C367.428 304.766 367.883 304.623 368.357 304.623H407.118C407.592 304.623 408.047 304.766 408.382 305.02C408.717 305.274 408.906 305.618 408.906 305.977C408.906 306.336 408.717 306.681 408.382 306.935C408.047 307.189 407.592 307.331 407.118 307.331Z" fill="#8988D8"/>
    <path d="M420.405 350.959H303.595C303.12 350.959 302.666 350.817 302.33 350.563C301.995 350.309 301.807 349.965 301.807 349.605C301.807 349.246 301.995 348.902 302.33 348.648C302.666 348.394 303.12 348.251 303.595 348.251H420.405C420.64 348.251 420.873 348.286 421.091 348.354C421.308 348.422 421.505 348.521 421.672 348.647C421.838 348.773 421.97 348.922 422.06 349.087C422.15 349.251 422.197 349.427 422.197 349.605C422.197 349.783 422.15 349.96 422.06 350.124C421.97 350.289 421.838 350.438 421.672 350.564C421.505 350.69 421.308 350.789 421.091 350.857C420.873 350.925 420.64 350.96 420.405 350.959Z" fill="#CCCCCC"/>
    <path d="M392.196 360.287H303.595C303.12 360.287 302.666 360.144 302.33 359.89C301.995 359.636 301.807 359.292 301.807 358.933C301.807 358.574 301.995 358.229 302.33 357.975C302.666 357.722 303.12 357.579 303.595 357.579H392.196C392.431 357.578 392.664 357.613 392.881 357.681C393.099 357.749 393.296 357.849 393.463 357.974C393.629 358.1 393.761 358.25 393.851 358.414C393.941 358.579 393.988 358.755 393.988 358.933C393.988 359.111 393.941 359.287 393.851 359.452C393.761 359.616 393.629 359.766 393.463 359.891C393.296 360.017 393.099 360.117 392.881 360.185C392.664 360.252 392.431 360.287 392.196 360.287L392.196 360.287Z" fill="#CCCCCC"/>
    <path d="M420.405 369.614H303.595C303.36 369.615 303.127 369.58 302.909 369.512C302.692 369.444 302.495 369.344 302.328 369.219C302.162 369.093 302.03 368.943 301.94 368.779C301.849 368.615 301.803 368.438 301.803 368.26C301.803 368.082 301.849 367.906 301.94 367.741C302.03 367.577 302.162 367.428 302.328 367.302C302.495 367.176 302.692 367.076 302.909 367.008C303.127 366.941 303.36 366.906 303.595 366.906H420.405C420.879 366.906 421.334 367.049 421.67 367.303C422.005 367.557 422.193 367.901 422.193 368.26C422.193 368.619 422.005 368.964 421.67 369.218C421.334 369.472 420.879 369.614 420.405 369.614Z" fill="#CCCCCC"/>
    <path d="M420.405 378.942H303.595C303.12 378.942 302.666 378.799 302.33 378.545C301.995 378.291 301.807 377.947 301.807 377.588C301.807 377.229 301.995 376.884 302.33 376.63C302.666 376.376 303.12 376.234 303.595 376.234H420.405C420.879 376.234 421.334 376.376 421.67 376.63C422.005 376.884 422.193 377.229 422.193 377.588C422.193 377.947 422.005 378.291 421.67 378.545C421.334 378.799 420.879 378.942 420.405 378.942Z" fill="#CCCCCC"/>
    <path d="M253.324 451.221C253.329 468.897 246.304 486.164 233.165 500.773C220.026 515.382 201.382 526.656 179.661 533.126C177.958 533.643 176.223 534.125 174.48 534.571C172.532 535.076 170.564 535.54 168.575 535.962C167.193 536.253 165.798 536.527 164.39 536.783C143.194 540.629 121.001 539.912 100.314 534.713C98.689 534.303 97.0795 533.863 95.4856 533.405C93.3421 532.781 91.2223 532.109 89.1416 531.39C88.9846 531.342 88.8354 531.289 88.6862 531.235C87.8697 530.95 87.0767 530.664 86.268 530.361H86.2601C85.1531 529.957 84.0565 529.537 82.9704 529.101C80.4736 528.102 78.0318 527.037 75.6449 525.908C74.4044 525.325 73.1822 524.72 71.9783 524.094C53.0299 514.406 38.2784 500.698 29.5719 484.689C20.8654 468.68 18.5913 451.081 23.0344 434.097C27.4775 417.113 38.4403 401.5 54.5492 389.214C70.658 376.928 91.1965 368.515 113.591 365.03C115.64 364.709 117.711 364.431 119.802 364.197C121.113 364.043 122.44 363.912 123.767 363.799C124.717 363.716 125.667 363.638 126.633 363.579H126.64C129.224 363.401 131.83 363.29 134.46 363.246C134.822 363.24 135.183 363.234 135.552 363.228C135.756 363.228 135.96 363.222 136.164 363.228H136.172C136.486 363.222 136.8 363.222 137.122 363.222C138.441 363.222 139.76 363.24 141.071 363.276C143.961 363.347 146.819 363.498 149.645 363.728C151.278 363.858 152.888 364.019 154.497 364.197C154.678 364.221 154.867 364.239 155.047 364.263C155.581 364.328 156.123 364.394 156.657 364.465C157.787 364.602 158.91 364.762 160.033 364.935C161.085 365.095 162.129 365.262 163.173 365.44C167.033 366.107 170.843 366.927 174.589 367.896C199.977 374.469 221.592 387.475 235.784 404.719C236.184 405.2 236.577 405.688 236.962 406.181C237.26 406.55 237.543 406.919 237.825 407.293C237.927 407.418 238.022 407.543 238.108 407.668C238.171 407.739 238.218 407.81 238.273 407.882C238.791 408.566 239.294 409.261 239.78 409.957C248.701 422.661 253.353 436.833 253.324 451.221Z" fill="white"/>
    <path d="M137.134 539.818C124.537 539.817 112.022 538.285 100.067 535.278C98.5255 534.889 96.9363 534.458 95.2072 533.961C93.0258 533.326 90.8764 532.643 88.8155 531.931C88.6782 531.89 88.5153 531.832 88.3523 531.773C87.5708 531.5 86.8067 531.226 86.0296 530.935L85.9192 530.897C84.8167 530.494 83.7009 530.067 82.6028 529.626C80.1019 528.625 77.6207 527.544 75.2287 526.412C73.9839 525.827 72.74 525.212 71.5335 524.584C52.4583 514.83 37.6083 501.029 28.8441 484.912C20.0799 468.795 17.7913 451.077 22.265 433.979C26.7387 416.881 37.7757 401.163 53.9932 388.794C70.2108 376.426 90.8876 367.956 113.433 364.447C115.489 364.125 117.593 363.844 119.687 363.609C120.927 363.463 122.272 363.328 123.679 363.208C124.635 363.124 125.594 363.047 126.569 362.986C129.156 362.809 131.805 362.696 134.443 362.651L135.746 362.633C135.895 362.631 136.044 362.63 136.194 362.634C136.473 362.628 136.794 362.628 137.122 362.628C138.45 362.628 139.789 362.646 141.1 362.682C143.996 362.753 146.9 362.906 149.729 363.137C151.227 363.256 152.824 363.411 154.611 363.609L155.366 363.7C155.841 363.758 156.32 363.816 156.793 363.88C157.811 364.003 158.894 364.153 160.189 364.352C161.246 364.514 162.296 364.681 163.346 364.86C167.233 365.532 171.07 366.358 174.843 367.333C200.389 373.969 222.142 387.058 236.45 404.404C236.853 404.888 237.249 405.38 237.638 405.879C237.934 406.244 238.22 406.618 238.507 406.998C238.599 407.11 238.696 407.238 238.786 407.366C238.83 407.419 238.868 407.471 238.907 407.523L238.951 407.583C239.445 408.234 239.942 408.918 240.474 409.678C248.198 420.703 252.76 432.839 253.861 445.292C254.963 457.744 252.578 470.233 246.864 481.939C241.15 493.645 232.236 504.305 220.704 513.222C209.173 522.138 195.285 529.109 179.949 533.679C178.286 534.184 176.529 534.674 174.731 535.134C172.784 535.639 170.783 536.111 168.787 536.535C167.405 536.826 165.988 537.104 164.573 537.361C155.586 538.993 146.376 539.817 137.134 539.818ZM86.4398 529.766H86.4439L86.6165 529.828C87.4185 530.129 88.2052 530.412 89.0152 530.695C89.1579 530.746 89.2921 530.795 89.4334 530.838C91.4995 531.551 93.6191 532.225 95.7673 532.85C97.4731 533.34 99.0428 533.766 100.563 534.149C121.109 539.317 143.155 540.029 164.207 536.204C165.603 535.951 167.002 535.677 168.364 535.389C170.33 534.972 172.303 534.507 174.225 534.008C175.999 533.554 177.728 533.072 179.369 532.574C200.996 526.206 219.566 515.022 232.629 500.498C245.692 485.975 252.633 468.794 252.539 451.221V451.22C252.551 436.931 247.932 422.858 239.087 410.236C238.563 409.487 238.074 408.814 237.592 408.178L237.534 408.1C237.509 408.066 237.485 408.032 237.455 407.998L237.412 407.944C237.335 407.831 237.25 407.719 237.158 407.606C236.865 407.219 236.586 406.856 236.292 406.492C235.905 405.995 235.516 405.512 235.12 405.036C221.003 387.921 199.54 375.006 174.335 368.459C170.615 367.497 166.831 366.683 162.999 366.02C161.962 365.843 160.924 365.677 159.878 365.518C158.604 365.322 157.542 365.174 156.533 365.052C156.054 364.988 155.583 364.931 155.116 364.874L154.363 364.783C152.618 364.59 151.041 364.438 149.563 364.319C146.771 364.092 143.906 363.941 141.046 363.87C139.751 363.835 138.432 363.817 137.122 363.817C136.803 363.818 136.499 363.817 136.191 363.823C136.012 363.819 135.889 363.82 135.766 363.821L134.477 363.841C131.876 363.884 129.263 363.995 126.712 364.171L126.632 364.174C125.739 364.231 124.798 364.307 123.857 364.39C122.47 364.508 121.147 364.641 119.922 364.785C117.852 365.017 115.778 365.295 113.75 365.612C91.5066 369.074 71.1068 377.43 55.1067 389.633C39.1066 401.836 28.2178 417.343 23.8046 434.212C19.3914 451.081 21.6501 468.562 30.2977 484.463C38.9453 500.364 53.5972 513.979 72.4176 523.601C73.6092 524.221 74.8325 524.826 76.0587 525.402C78.4209 526.52 80.8689 527.587 83.3371 528.575C84.365 528.987 85.4076 529.388 86.4398 529.766Z" fill="#CBCBCB"/>
    <path d="M236.558 432.113C235.29 433.367 233.674 434.395 231.824 435.125C229.974 435.854 227.935 436.268 225.851 436.336C223.767 436.405 221.689 436.126 219.763 435.521C217.836 434.915 216.109 433.997 214.702 432.831L184.044 441.233L172.758 428.369L216.272 416.965C219.016 415.304 222.468 414.464 225.975 414.602C229.482 414.74 232.8 415.848 235.3 417.715C237.801 419.583 239.31 422.08 239.542 424.733C239.774 427.387 238.712 430.013 236.558 432.113Z" fill="#9F616A"/>
    <path d="M140.761 433.311L203.921 417.501L214.565 435.095L155.679 448.77L140.761 433.311Z" fill="#CCCCCC"/>
    <path d="M164.39 536.782C143.194 540.629 121.001 539.912 100.314 534.713L101.728 524.593L103.039 515.139L122.707 492.111L129.012 484.732L154.992 491.885L157.638 504.52L161.854 524.671L164.39 536.782Z" fill="#2F2E41"/>
    <path d="M179.662 533.126C177.958 533.643 176.223 534.125 174.48 534.571C172.532 535.076 170.564 535.54 168.575 535.962C167.193 536.253 165.798 536.527 164.39 536.782C143.195 540.629 121.001 539.912 100.314 534.713C98.6891 534.303 97.0795 533.863 95.4857 533.405C95.7032 536.926 95.5614 540.455 95.0617 543.959C92.7936 539.852 90.8175 535.656 89.1417 531.39C89.0239 531.104 88.914 530.819 88.804 530.533C88.2544 529.095 87.7676 527.721 87.328 526.431C86.8255 524.938 86.3936 523.553 86.0325 522.286C84.5956 517.316 84.1403 514.242 84.1403 514.242L99.4899 490.101L102.56 490.369L103.832 490.476L111.526 491.142L122.707 492.111L140.82 493.675L157.638 504.52L172.705 514.242C172.705 514.242 173.961 517.476 175.932 522.833C177 525.711 178.264 529.201 179.662 533.126Z" fill="#2F2E41"/>
    <path d="M130.998 372.546C145.998 372.546 158.157 363.338 158.157 351.979C158.157 340.62 145.998 331.411 130.998 331.411C115.999 331.411 103.84 340.62 103.84 351.979C103.84 363.338 115.999 372.546 130.998 372.546Z" fill="#9F616A"/>
    <path d="M149.904 395.306C149.904 395.306 143.376 380.026 128.026 380.026C124.188 380.026 117.995 380.267 112.96 382.755C92.691 392.772 80.3602 409.797 79.4155 428.112L74.6959 519.608C74.6959 519.608 100.674 526.762 110.12 524.079C119.567 521.396 129.014 503.512 129.014 503.512C129.014 503.512 126.652 527.656 136.098 526.762C145.545 525.868 180.969 524.079 182.15 520.502C183.331 516.925 164.073 440.017 164.073 440.017L149.904 395.306Z" fill="#CCCCCC"/>
    <path d="M117.795 358.009C120.232 357.898 122.611 358.522 125.03 358.765C133.687 359.636 142.692 354.879 144.603 348.426C144.757 347.567 145.095 346.732 145.604 345.956C146.937 344.309 149.971 343.995 152.472 344.373C154.973 344.752 157.344 345.639 159.891 345.74C163.824 345.896 167.6 344.063 169.696 341.537C171.792 339.012 172.386 335.905 172.103 332.931L170.217 334.429C169.451 333.202 169.155 331.836 169.364 330.488C168.365 330.286 167.314 330.282 166.312 330.476C165.31 330.67 164.391 331.056 163.643 331.596C161.98 331.73 163.235 329.261 162 328.408C161.399 328.128 160.683 328.027 159.99 328.123C156.453 328.149 153.592 326.1 150.805 324.451C145.976 321.6 140.329 319.649 134.32 318.756C130.326 318.167 126.08 318.072 122.292 319.198C119.182 320.123 116.578 321.807 114.169 323.562C108.24 327.879 102.989 332.953 100.522 338.896C98.5164 343.764 98.4596 348.972 100.359 353.865C101.353 356.405 104.348 365.106 108.734 365.309C114.245 365.564 110.936 358.319 117.795 358.009Z" fill="#2F2E41"/>
    <path opacity="0.1" d="M129.263 422.385L101.452 453.274L92.558 525.023L129.263 422.385Z" fill="black"/>
    <path d="M247.131 403.503C247.797 402.796 248.053 402.071 247.703 401.882C247.353 401.693 246.53 402.112 245.864 402.818C245.199 403.525 244.943 404.25 245.293 404.439C245.643 404.628 246.466 404.209 247.131 403.503Z" fill="#3F3D56"/>
    <path d="M210.043 436.781C209.259 436.358 208.73 435.716 208.571 434.996C208.412 434.277 208.637 433.54 209.197 432.946L240.827 399.373C241.387 398.779 242.234 398.378 243.184 398.258C244.134 398.138 245.108 398.308 245.892 398.732L210.043 436.781L210.043 436.781Z" fill="#8988D8"/>
    <path d="M211.342 440.137L209.512 439.148C209.198 438.978 208.931 438.763 208.726 438.515C208.522 438.268 208.384 437.992 208.32 437.703C208.257 437.415 208.269 437.12 208.356 436.836C208.442 436.551 208.602 436.282 208.827 436.044L244.841 397.818C245.223 397.413 245.802 397.139 246.451 397.057C247.1 396.974 247.766 397.091 248.301 397.38L250.504 398.57L211.342 440.137H211.342Z" fill="#2F2E41"/>
    <path d="M243.753 401.678L241.343 404.236L242.188 404.692L244.598 402.134L243.753 401.678Z" fill="#D0CDE1"/>
    <path d="M240.44 405.195L238.03 407.753L238.874 408.209L241.284 405.651L240.44 405.195Z" fill="#D0CDE1"/>
    <path d="M98.8712 548.427C100.09 547.145 100.922 545.676 101.31 544.124C101.698 542.572 101.631 540.975 101.116 539.444C100.6 537.913 99.6475 536.487 98.3252 535.266C97.0029 534.044 95.343 533.057 93.4624 532.374L95.224 507.719L75.7009 503.254L73.8589 538.098C72.5527 540.566 72.4877 543.312 73.676 545.814C74.8644 548.317 77.2236 550.402 80.3067 551.676C83.3898 552.949 86.9825 553.321 90.4041 552.723C93.8256 552.124 96.8383 550.595 98.8712 548.427H98.8712Z" fill="#9F616A"/>
    <path d="M98.7673 528.148H70.5234L62.7518 462.264L62.7785 462.205L89.2138 403.41C90.1446 401.34 91.6345 399.439 93.5885 397.829C95.5426 396.219 97.918 394.934 100.564 394.057C103.209 393.181 106.067 392.731 108.955 392.736C111.842 392.741 114.697 393.202 117.337 394.089C119.976 394.976 122.343 396.269 124.287 397.887C126.23 399.505 127.707 401.411 128.625 403.485C129.542 405.558 129.879 407.754 129.614 409.932C129.349 412.109 128.488 414.221 127.086 416.133L95.9802 458.555L98.7673 528.148Z" fill="#CCCCCC"/>
    <path d="M703.215 242.428C703.236 259.769 696.498 276.73 683.844 291.183C671.189 305.637 653.183 316.94 632.081 323.675C610.98 330.411 587.722 332.279 565.224 329.046C542.726 325.813 521.989 317.623 505.612 305.502C489.235 293.381 477.947 277.868 473.164 260.909C468.38 243.95 470.314 226.299 478.723 210.169C487.131 194.039 501.64 180.147 520.43 170.236C539.221 160.324 561.457 154.834 584.351 154.452C584.712 154.447 585.073 154.441 585.442 154.435C585.961 154.429 586.487 154.429 587.013 154.429C588.332 154.429 589.651 154.447 590.962 154.482C593.851 154.554 596.709 154.704 599.536 154.934C601.169 155.065 602.778 155.225 604.388 155.404C604.569 155.428 604.757 155.445 604.938 155.469C611.58 156.245 618.119 157.46 624.48 159.102C647.444 165.033 667.382 176.256 681.501 191.198C695.621 206.141 703.213 224.054 703.215 242.428Z" fill="white"/>
    <path d="M586.905 331.185C522.388 331.187 469.874 291.463 469.813 242.595C469.784 219.4 481.758 197.12 503.166 180.531C524.574 163.943 553.713 154.368 584.334 153.858L585.425 153.84C587.275 153.82 589.157 153.838 590.99 153.888C593.883 153.96 596.787 154.113 599.62 154.343C601.119 154.463 602.717 154.618 604.502 154.816L605.072 154.883C632.649 158.126 657.783 168.735 675.928 184.792C694.073 200.85 704.031 221.294 704 242.428V242.427C704.061 291.322 651.582 331.139 587.017 331.185L586.905 331.185ZM587 155.023C586.482 155.023 585.964 155.023 585.454 155.029L584.369 155.047C522.009 156.085 471.324 195.358 471.383 242.593C471.443 290.803 523.258 329.993 586.905 329.996H587.015C650.715 329.95 702.49 290.668 702.43 242.428V242.428C702.46 221.576 692.635 201.404 674.731 185.562C656.827 169.72 632.027 159.254 604.818 156.057L604.254 155.99C602.51 155.797 600.933 155.644 599.453 155.526C596.658 155.298 593.793 155.147 590.936 155.077C589.642 155.041 588.322 155.023 587.013 155.023H587Z" fill="#CBCBCB"/>
    <path d="M498.098 247.178C498.328 246.903 497.729 246.304 496.761 245.84C495.793 245.376 494.822 245.222 494.592 245.497C494.362 245.772 494.961 246.371 495.929 246.835C496.897 247.3 497.868 247.453 498.098 247.178Z" fill="#3F3D56"/>
    <path d="M494.702 242.062C494.957 241.757 495.289 241.493 495.678 241.285C496.068 241.078 496.508 240.93 496.974 240.851C497.439 240.772 497.92 240.763 498.39 240.824C498.86 240.886 499.309 241.017 499.711 241.211L545.722 263.275C546.125 263.468 546.474 263.72 546.748 264.015C547.023 264.31 547.218 264.643 547.322 264.996C547.427 265.348 547.439 265.712 547.357 266.068C547.275 266.424 547.102 266.764 546.847 267.069L494.702 242.062V242.062Z" fill="#8988D8"/>
    <path d="M490.349 243.23L491.797 241.499C492.149 241.078 492.707 240.78 493.349 240.671C493.991 240.561 494.664 240.65 495.22 240.916L547.607 266.039C547.933 266.195 548.215 266.399 548.438 266.638C548.66 266.876 548.818 267.146 548.902 267.431C548.987 267.716 548.996 268.011 548.93 268.299C548.864 268.587 548.724 268.862 548.518 269.109L547.315 270.548L490.349 243.23H490.349Z" fill="#2F2E41"/>
    <path d="M498.149 244.181L497.594 244.844L501.099 246.525L501.654 245.862L498.149 244.181Z" fill="#D0CDE1"/>
    <path d="M502.969 246.492L502.414 247.156L505.92 248.837L506.475 248.173L502.969 246.492Z" fill="#D0CDE1"/>
    <path d="M587.323 163.488C605.384 163.488 620.026 152.4 620.026 138.722C620.026 125.044 605.384 113.956 587.323 113.956C569.262 113.956 554.62 125.044 554.62 138.722C554.62 152.4 569.262 163.488 587.323 163.488Z" fill="#FFB8B8"/>
    <path d="M618.466 327.168C591.934 332.78 563.636 331.105 538.577 322.441L541.089 271.604L541.278 267.65L541.349 266.366L541.435 264.475L541.498 263.268C541.498 263.268 541.6 263.262 541.796 263.256C542.33 263.226 543.563 263.161 545.329 263.084C547.378 262.995 550.134 262.882 553.346 262.78C554.107 262.757 554.892 262.733 555.701 262.703C572.613 262.228 599.026 262.126 602.519 265.985L602.959 268.257L603.666 271.925L605.11 279.423C605.11 279.423 621.536 304.158 618.466 327.168Z" fill="#2F2E41"/>
    <path d="M626.768 198.95L620.327 244.008L608.059 264.557L603.513 272.177L537.708 271.573L544.488 236.841C534.916 218.116 557.649 210.565 557.649 210.565L581.229 173.977C581.229 173.977 587.51 171.599 603.912 171C619.159 170.444 607.139 172.193 607.139 172.193C627.08 170.683 626.768 198.95 626.768 198.95Z" fill="#CCCCCC"/>
    <path opacity="0.2" d="M606.979 246.386L594.712 266.936C590.772 261.354 587.772 255.033 587.772 251.3C587.772 241.031 601.332 246.468 601.332 246.468C601.332 246.468 590.365 201.013 590.365 187.423C590.365 178.395 600.303 218.458 606.979 246.386Z" fill="black"/>
    <path d="M625.013 123.634C622.885 119.702 619.594 116.193 615.393 113.376C617.116 112.938 618.555 112.021 619.416 110.809C620.675 108.922 620.008 106.556 618.297 104.867C616.737 103.44 614.719 102.341 612.437 101.674C614.109 102.25 615.938 102.516 617.773 102.451C619.997 102.276 622.22 100.954 622.088 99.314C621.963 97.7515 619.933 96.6949 618.111 95.8795C616.93 95.3505 615.748 94.8215 614.566 94.2926C614.917 93.7788 615.225 93.2489 615.489 92.7061C616.509 90.7328 616.755 88.5785 616.197 86.502C615.64 84.4254 614.302 82.5149 612.346 81C616.216 83.9834 615.227 88.6007 611.404 92.3477C611.281 92.4685 611.148 92.5862 611.02 92.7054C610.263 92.3663 609.505 92.0272 608.748 91.6881C606.858 90.8424 604.894 89.9769 602.7 89.7775C600.505 89.578 598.005 90.2359 597.109 91.7184C596.15 93.3053 597.24 95.3304 595.991 96.8038C594.897 98.0931 592.51 98.3676 590.441 98.3065C588.372 98.2454 586.172 97.9979 584.331 98.691C581.772 99.6544 580.932 102.26 582.07 104.203C582.576 105.031 583.331 105.757 584.273 106.325C578.796 106.904 573.401 108.136 568.1 109.389C561.848 110.866 555.481 112.435 550.257 115.425C545.032 118.415 541.074 123.134 541.572 128.079C542.07 133.024 548.557 140.812 555.021 140.021L556.005 137.688C559.915 136.281 564.307 135.833 568.568 136.406C572.83 136.98 576.749 138.547 579.778 140.889C579.853 137.775 586.11 136.741 589.228 138.771C592.346 140.801 592.948 144.232 593.189 147.341C593.431 150.449 593.66 153.834 596.364 156.179C598.959 158.431 603.379 159.129 607.225 158.458C611.071 157.787 614.395 155.94 617.148 153.799C627.139 146.034 630.357 133.692 625.013 123.634Z" fill="#2F2E41"/>
    <path d="M520.705 268.598C522.398 269.521 524.338 270.151 526.387 270.445C528.437 270.739 530.546 270.689 532.567 270.298C534.588 269.907 536.472 269.186 538.085 268.185C539.698 267.183 541.002 265.926 541.904 264.502L630.991 265.836L636.886 251.052L534.345 249.657C531.085 248.667 527.46 248.618 524.155 249.518C520.851 250.418 518.097 252.205 516.416 254.539C514.734 256.874 514.242 259.595 515.033 262.186C515.824 264.777 517.842 267.059 520.705 268.598V268.598Z" fill="#FFB8B8"/>
    <path d="M607.315 169.754C607.315 169.754 586.576 170.962 586.576 184.553C586.576 198.144 605.321 246.468 605.321 246.468C605.321 246.468 591.761 241.031 591.761 251.3C591.761 261.569 614.493 291.469 616.886 271.535C616.886 271.535 651.184 284.22 649.19 260.361C647.196 236.501 625.66 186.064 625.66 186.064C625.66 186.064 623.267 168.848 607.315 169.754Z" fill="#CCCCCC"/>
  </g>
  <defs>
    <clipPath id="clip0">
      <rect width="684" height="472" fill="white" transform="translate(20 81)"/>
    </clipPath>
  </defs>
</svg>
