<svg width="40" height="40" viewBox="0 0 40 40" fill="none" xmlns="http://www.w3.org/2000/svg">
<path fill-rule="evenodd" clip-rule="evenodd" d="M10 7H30C32.2191 7 34.2271 7.9035 35.6763 9.36271C35.2229 10.4834 34.5865 11.5332 33.767 12.4551L26.6267 20.4879C26.5394 20.5862 26.4508 20.6821 26.3609 20.7756C26.0579 21.0912 25.741 21.3801 25.4124 21.6424L25.2267 21.4596C24.3199 22.3807 23.5608 23.1859 22.9173 23.8712L22.766 24.0324L22.7657 24.0327C22.1873 24.6488 21.716 25.1509 21.3081 25.5568C20.8606 26.0021 20.5347 26.2854 20.2764 26.4558C20.0261 26.621 19.9118 26.6314 19.8729 26.6314C19.8367 26.6314 19.7293 26.6227 19.4939 26.4621C19.2485 26.2947 18.9394 26.0146 18.5141 25.5699C18.1276 25.1658 17.6827 24.6662 17.136 24.0524L16.9876 23.8857C16.3771 23.2005 15.6566 22.3951 14.7937 21.4739L14.5864 21.6684C14.2461 21.3992 13.9182 21.1016 13.6052 20.7756C13.5154 20.6821 13.4268 20.5862 13.3394 20.4879L6.19918 12.4551C5.38561 11.5399 4.75243 10.4985 4.29965 9.38698C5.75067 7.91353 7.76865 7 10 7ZM2.00331 14.7678C2.03978 13.488 2.37681 12.2835 2.94629 11.2224C3.41849 12.1333 4.00382 12.9958 4.70436 13.7839L11.8446 21.8167C11.932 21.9149 12.0205 22.0114 12.1102 22.106C12.0205 22.2006 11.932 22.297 11.8446 22.3953L4.70436 30.4281L6.19918 31.7568L4.70436 30.4281C4.6117 30.5324 4.52104 30.6379 4.43239 30.7447C2.95115 29.3089 2.0235 27.3052 2.00044 25.0848C2.00015 25.0566 2 25.0283 2 25V25M2 15C2 14.9914 2.00001 14.9827 2.00004 14.9741C2.00001 14.9827 2 14.9913 2 15V15ZM6.03286 31.9486C6.08744 31.8841 6.14288 31.8202 6.19918 31.7568L13.3394 23.724C13.4268 23.6258 13.5154 23.5299 13.6052 23.4363C13.6521 23.3875 13.6993 23.3393 13.7469 23.2918C14.4119 24.0108 14.986 24.6528 15.4917 25.2204L15.6467 25.3944C16.1844 25.9983 16.6535 26.525 17.0658 26.9561C17.5127 27.4234 17.9383 27.8275 18.3617 28.1163C18.795 28.4119 19.2905 28.6314 19.8625 28.6316C20.4319 28.6318 20.9314 28.4146 21.372 28.1239C21.8045 27.8385 22.2463 27.4379 22.7152 26.9713C23.1488 26.5398 23.6443 26.012 24.2135 25.4055L24.3719 25.2368C24.908 24.6659 25.5172 24.0194 26.2223 23.2948C26.2688 23.3414 26.315 23.3886 26.3609 23.4363C26.4508 23.5299 26.5394 23.6258 26.6267 23.724L33.767 31.7568C33.827 31.8244 33.8862 31.8927 33.9443 31.9617C32.7803 32.6226 31.4342 33 30 33H10C8.5564 33 7.2021 32.6176 6.03286 31.9486ZM0 25V15V15C0 12.7305 0.756002 10.6376 2.02991 8.95939C2.50714 8.33069 3.05707 7.76018 3.66715 7.26039C3.66716 7.2604 3.66716 7.26041 3.66716 7.26042C5.39164 5.84771 7.59682 5 10 5H30C32.3896 5 34.5835 5.83815 36.3036 7.23655C36.3228 7.25212 36.3419 7.2678 36.3609 7.28351C36.9495 7.76926 37.4816 8.32104 37.9458 8.92752C38.0659 9.08439 38.1814 9.24492 38.2922 9.40891C39.3704 11.0049 40 12.9289 40 15C40 15 40 15 40 15V25C40 25 40 25 40 25C40 27.943 38.7287 30.589 36.7053 32.4189C36.6521 32.467 36.5985 32.5145 36.5443 32.5615C36.0914 32.9538 35.6028 33.3061 35.0842 33.6129C33.5945 34.4942 31.8563 35 30 35H10C4.47715 35 0 30.5228 0 25V25ZM37.9534 25.8683C37.7467 27.7836 36.864 29.4962 35.5488 30.7629C35.4554 30.6499 35.3597 30.5383 35.2618 30.4281L28.1215 22.3953C28.0342 22.297 27.9456 22.2006 27.8559 22.106C27.9456 22.0114 28.0342 21.9149 28.1215 21.8167L35.2618 13.7839C35.9705 12.9865 36.5614 12.113 37.0364 11.1904C37.5894 12.2097 37.9275 13.3626 37.9896 14.5883C37.9965 14.7247 38 14.8619 38 15C38 15 38 15 38 15V25C38 25 38 25 38 25C38 25.2934 37.9842 25.5831 37.9534 25.8683Z" fill="black"/>
</svg>
