<svg width="842" height="683" viewBox="0 0 842 683" fill="none" xmlns="http://www.w3.org/2000/svg">
  <path d="M191.753 633.794C247.357 682.927 305.53 689.309 359.53 669.309C420.53 646.716 393.183 604.7 457.529 569.309C489.529 551.709 541.124 560.193 558.062 577.959C596.53 618.309 689.53 616.486 719.53 587.309C758.293 549.609 768.53 504.309 768.53 450.309C768.529 391.159 756.983 333.727 710.53 271.309C674.076 222.327 605.529 265.235 532.529 185.309C471.483 118.47 296.53 128.228 215.53 179.309C136.338 229.25 105.227 264.921 98.9752 426.609C101.997 513.941 136.15 584.662 191.753 633.794Z" fill="#8AAFD2" fill-opacity="0.3"/>
  <g clip-path="url(#clip0)">
    <path d="M695.697 254.439H604.254C591.877 220.342 586.502 188.638 604.254 164.84C604.254 158.73 605.437 152.679 607.734 147.033C610.032 141.388 613.4 136.258 617.645 131.937C621.891 127.617 626.931 124.189 632.479 121.851C638.026 119.512 643.971 118.309 649.975 118.309H649.975C657.272 118.303 664.465 120.077 670.949 123.483C677.434 126.888 683.022 131.826 687.246 137.881C694.471 148.209 695.919 161.523 691.776 173.479C684.391 194.789 688.9 223.866 695.697 254.439Z" fill="#2F2E41"/>
    <path d="M743.992 590.309C741.345 590.309 738.769 589.445 736.64 587.845C734.511 586.245 732.943 583.993 732.165 581.418L728.397 568.958C727.525 566.075 727.358 563.018 727.909 560.054L730.475 546.252H748.471L755.939 574.436C756.434 576.303 756.5 578.26 756.131 580.157C755.763 582.054 754.97 583.839 753.815 585.373C752.66 586.908 751.173 588.152 749.469 589.008C747.766 589.863 745.891 590.309 743.992 590.309Z" fill="#2F2E41"/>
    <path d="M612.868 590.309C615.515 590.309 618.091 589.445 620.22 587.845C622.349 586.245 623.917 583.993 624.695 581.418L628.463 568.958C629.334 566.075 629.502 563.018 628.951 560.054L626.385 546.252H608.389L600.921 574.436C600.426 576.303 600.36 578.26 600.729 580.157C601.097 582.054 601.89 583.839 603.045 585.373C604.2 586.908 605.687 588.152 607.391 589.008C609.094 589.863 610.969 590.309 612.868 590.309Z" fill="#2F2E41"/>
    <path d="M749.931 547.737H729.988L643.409 380.421L627.436 547.737H609.848C600.824 442.375 578.87 342.014 609.848 304.188L682.321 311.118L749.931 547.737Z" fill="#2F2E41"/>
    <path d="M647.544 191.076C660.975 191.076 671.863 179.995 671.863 166.325C671.863 152.656 660.975 141.574 647.544 141.574C634.112 141.574 623.224 152.656 623.224 166.325C623.224 179.995 634.112 191.076 647.544 191.076Z" fill="#9F616A"/>
    <path d="M681.835 261.616H627.844L618.603 218.055C636.532 212.664 640.807 200.126 637.086 183.403L666.27 181.423C667.924 194.894 670.95 207.454 689.617 209.639L681.835 261.616Z" fill="#9F616A"/>
    <path d="M681.835 316.069C651.203 327.905 626.284 327.536 608.875 311.118C616.731 284.753 617.201 252.286 613.739 216.57L623.467 212.115L626.872 243.796L675.025 241.321L685.726 206.669L696.427 209.145C697.247 252.107 694.719 290.757 681.835 316.069Z" fill="#E6E6E6"/>
    <path d="M710.046 369.531L715.765 388.447C716.228 389.98 716.332 391.601 716.067 393.182C715.802 394.763 715.177 396.258 714.241 397.548C713.305 398.837 712.084 399.886 710.678 400.608C709.271 401.33 707.718 401.707 706.142 401.707C704.732 401.707 703.337 401.405 702.049 400.822C700.76 400.238 699.606 399.385 698.662 398.319C697.718 397.252 697.005 395.996 696.568 394.631C696.132 393.266 695.982 391.823 696.129 390.396L698.372 368.54L689.131 294.288L695.94 261.616H712.964L710.046 369.531Z" fill="#9F616A"/>
    <path d="M573.817 365.596L563.767 382.54C562.952 383.912 562.466 385.46 562.347 387.059C562.227 388.658 562.478 390.263 563.08 391.745C563.681 393.227 564.615 394.545 565.808 395.592C567.001 396.64 568.419 397.388 569.947 397.776C571.316 398.124 572.741 398.175 574.13 397.926C575.519 397.678 576.841 397.135 578.011 396.333C579.181 395.531 580.172 394.488 580.92 393.271C581.668 392.054 582.157 390.691 582.355 389.27L585.379 367.513L612.015 297.748L617.387 264.339L596.666 260.175L573.817 365.596Z" fill="#9F616A"/>
    <path d="M725.124 265.576L693.022 265.081V208.154L697.965 208.888C703.211 209.667 708.047 212.218 711.696 216.132C715.345 220.046 717.595 225.095 718.084 230.468L725.124 265.576Z" fill="#E6E6E6"/>
    <path d="M587.96 271.517L620.062 271.022V214.095L615.119 214.828C609.873 215.607 605.037 218.158 601.388 222.072C597.739 225.986 595.489 231.035 595 236.408L587.96 271.517Z" fill="#E6E6E6"/>
    <path d="M669.918 154.445C659.587 160.394 639.733 163.115 625.169 158.9L620.305 133.159H668.459L669.918 154.445Z" fill="#2F2E41"/>
    <path d="M287.456 459.977H129.053V589.908H287.456V459.977Z" fill="#E6E6E6"/>
    <path d="M221.651 552.212H194.857V589.105H221.651V552.212Z" fill="#8988D8"/>
    <path d="M482.13 463.814L486.347 452.372L525.696 429.489L552.397 423.768L482.13 463.814Z" fill="#8988D8"/>
    <path d="M337.382 463.814L333.165 452.372L293.816 429.489L267.115 423.768L337.382 463.814Z" fill="#8988D8"/>
    <path d="M484.941 466.674H334.571L321.923 406.605H497.589L484.941 466.674Z" fill="#8988D8"/>
    <path opacity="0.1" d="M484.941 466.674H334.571L321.923 406.605H497.589L484.941 466.674Z" fill="black"/>
    <path d="M485.644 463.098H333.868V589.907H485.644V463.098Z" fill="#8988D8"/>
    <path d="M423.153 552.193H396.359V589.087H423.153V552.193Z" fill="#3F3D56"/>
    <path d="M781.218 590.06H97.5297V588.31H781.53L781.218 590.06Z" fill="#3F3D56"/>
    <path d="M441.279 489.051H378.233V509.102H441.279V489.051Z" fill="white"/>
    <path d="M239.359 489.051H176.313V509.102H239.359V489.051Z" fill="white"/>
  </g>
  <defs>
    <clipPath id="clip0">
      <rect width="684" height="472" fill="white" transform="translate(97.5297 118.309)"/>
    </clipPath>
  </defs>
</svg>
