<svg width="32" height="32" viewBox="0 0 32 32" fill="none" xmlns="http://www.w3.org/2000/svg">
<mask id="path-1-inside-1" fill="white">
<path fill-rule="evenodd" clip-rule="evenodd" d="M26.5298 16.7582C27.467 15.1931 28 13.3962 28 11.4853C28 5.41828 22.6274 0.5 16 0.5C9.37258 0.5 4 5.41828 4 11.4853C4 13.3962 4.53295 15.1931 5.47021 16.7582H5.44L5.71989 17.1553C5.84367 17.343 5.97342 17.527 6.10889 17.7071L15.92 31.625L25.7443 17.898C25.9506 17.6357 26.1446 17.3647 26.3255 17.0858L26.56 16.7582H26.5298Z"/>
</mask>
<path d="M26.5298 16.7582L24.8139 15.7307L23.001 18.7582H26.5298V16.7582ZM5.47021 16.7582V18.7582H8.99901L7.18609 15.7307L5.47021 16.7582ZM5.44 16.7582V14.7582H1.58317L3.80532 17.9106L5.44 16.7582ZM5.71989 17.1553L7.38944 16.0541L7.37239 16.0283L7.35456 16.003L5.71989 17.1553ZM6.10889 17.7071L7.74356 16.5548L7.72582 16.5296L7.70732 16.505L6.10889 17.7071ZM15.92 31.625L14.2853 32.7773L15.9076 35.0787L17.5464 32.789L15.92 31.625ZM25.7443 17.898L24.1724 16.6614L24.1443 16.6971L24.1179 16.734L25.7443 17.898ZM26.3255 17.0858L24.6992 15.9218L24.6725 15.9591L24.6476 15.9975L26.3255 17.0858ZM26.56 16.7582L28.1864 17.9222L30.4508 14.7582H26.56V16.7582ZM26 11.4853C26 13.0169 25.5743 14.4609 24.8139 15.7307L28.2457 17.7857C29.3598 15.9253 30 13.7754 30 11.4853H26ZM16 2.5C21.6928 2.5 26 6.68551 26 11.4853H30C30 4.15106 23.562 -1.5 16 -1.5V2.5ZM6 11.4853C6 6.68551 10.3072 2.5 16 2.5V-1.5C8.43801 -1.5 2 4.15106 2 11.4853H6ZM7.18609 15.7307C6.42566 14.4609 6 13.0169 6 11.4853H2C2 13.7754 2.64025 15.9253 3.75433 17.7857L7.18609 15.7307ZM5.44 18.7582H5.47021V14.7582H5.44V18.7582ZM7.35456 16.003L7.07467 15.6059L3.80532 17.9106L4.08521 18.3076L7.35456 16.003ZM7.70732 16.505C7.59641 16.3575 7.4904 16.2072 7.38944 16.0541L4.05033 18.2565C4.19695 18.4788 4.35043 18.6964 4.51045 18.9092L7.70732 16.505ZM17.5547 30.4727L7.74356 16.5548L4.47422 18.8594L14.2853 32.7773L17.5547 30.4727ZM24.1179 16.734L14.2936 30.461L17.5464 32.789L27.3707 19.062L24.1179 16.734ZM24.6476 15.9975C24.5001 16.2248 24.3416 16.4464 24.1724 16.6614L27.3162 19.1345C27.5597 18.825 27.7891 18.5046 28.0035 18.1742L24.6476 15.9975ZM24.9336 15.5942L24.6992 15.9218L27.9519 18.2498L28.1864 17.9222L24.9336 15.5942ZM26.5298 18.7582H26.56V14.7582H26.5298V18.7582Z" fill="black" mask="url(#path-1-inside-1)"/>
<path d="M20.78 11.3388C20.78 13.6915 18.6824 15.6723 16 15.6723C13.3176 15.6723 11.22 13.6915 11.22 11.3388C11.22 8.9861 13.3176 7.00525 16 7.00525C18.6824 7.00525 20.78 8.9861 20.78 11.3388Z" stroke="black"/>
</svg>
