<svg width="40" height="40" viewBox="0 0 40 40" fill="none" xmlns="http://www.w3.org/2000/svg">
<mask id="path-1-inside-1" fill="white">
<path fill-rule="evenodd" clip-rule="evenodd" d="M33.1622 20.9478C34.3338 18.9913 35 16.7452 35 14.3566C35 6.77286 28.2843 0.625 20 0.625C11.7157 0.625 5 6.77286 5 14.3566C5 16.7452 5.66619 18.9913 6.83776 20.9478H6.79992L7.151 21.4458C7.30501 21.6793 7.46639 21.9081 7.63485 22.1322L19.8999 39.5312L32.1795 22.3735C32.438 22.045 32.6811 21.7056 32.9077 21.3562L33.1999 20.9478H33.1622Z"/>
</mask>
<path d="M33.1622 20.9478L31.4464 19.9203L29.6334 22.9478H33.1622V20.9478ZM6.83776 20.9478V22.9478H10.3666L8.55364 19.9203L6.83776 20.9478ZM6.79992 20.9478V18.9478H2.94308L5.16525 22.1001L6.79992 20.9478ZM7.151 21.4458L8.82039 20.3444L8.80342 20.3187L8.78567 20.2935L7.151 21.4458ZM7.63485 22.1322L9.26952 20.9799L9.25187 20.9549L9.23347 20.9304L7.63485 22.1322ZM19.8999 39.5312L18.2652 40.6836L19.8876 42.985L21.5263 40.6952L19.8999 39.5312ZM32.1795 22.3735L30.6078 21.1368L30.5796 21.1725L30.5532 21.2095L32.1795 22.3735ZM32.9077 21.3562L31.2813 20.1922L31.2546 20.2295L31.2296 20.268L32.9077 21.3562ZM33.1999 20.9478L34.8263 22.1118L37.0907 18.9478H33.1999V20.9478ZM33 14.3566C33 16.366 32.4411 18.2591 31.4464 19.9203L34.8781 21.9753C36.2265 19.7235 37 17.1244 37 14.3566H33ZM20 2.625C27.3497 2.625 33 8.04008 33 14.3566H37C37 5.50563 29.2188 -1.375 20 -1.375V2.625ZM7 14.3566C7 8.04008 12.6503 2.625 20 2.625V-1.375C10.7812 -1.375 3 5.50563 3 14.3566H7ZM8.55364 19.9203C7.5589 18.2591 7 16.366 7 14.3566H3C3 17.1244 3.77349 19.7235 5.12188 21.9753L8.55364 19.9203ZM6.79992 22.9478H6.83776V18.9478H6.79992V22.9478ZM8.78567 20.2935L8.43459 19.7955L5.16525 22.1001L5.51633 22.5982L8.78567 20.2935ZM9.23347 20.9304C9.08944 20.7388 8.95167 20.5434 8.82039 20.3444L5.48162 22.5473C5.65834 22.8151 5.84334 23.0775 6.03623 23.3341L9.23347 20.9304ZM21.5346 38.3789L9.26952 20.9799L6.00018 23.2845L18.2652 40.6836L21.5346 38.3789ZM30.5532 21.2095L18.2735 38.3673L21.5263 40.6952L33.8059 23.5375L30.5532 21.2095ZM31.2296 20.268C31.0365 20.5657 30.829 20.8556 30.6078 21.1368L33.7513 23.6102C34.0471 23.2344 34.3256 22.8454 34.5857 22.4443L31.2296 20.268ZM31.5735 19.7838L31.2813 20.1922L34.534 22.5202L34.8263 22.1118L31.5735 19.7838ZM33.1622 22.9478H33.1999V18.9478H33.1622V22.9478Z" fill="black" mask="url(#path-1-inside-1)"/>
<path d="M26.0999 14.1733C26.0999 17.1933 23.4113 19.7152 19.9999 19.7152C16.5885 19.7152 13.8999 17.1933 13.8999 14.1733C13.8999 11.1532 16.5885 8.63135 19.9999 8.63135C23.4113 8.63135 26.0999 11.1532 26.0999 14.1733Z" stroke="black"/>
</svg>
