<?xml version="1.0"?>
<svg xmlns="http://www.w3.org/2000/svg" xmlns:xlink="http://www.w3.org/1999/xlink" xmlns:svgjs="http://svgjs.com/svgjs" version="1.1" width="512" height="512" x="0" y="0" viewBox="0 0 512 512" style="enable-background:new 0 0 512 512" xml:space="preserve" class=""><g><g xmlns="http://www.w3.org/2000/svg"><path d="m371.157 128.343h-230.314c-6.893 0-12.5 5.607-12.5 12.5v230.314c0 6.893 5.607 12.5 12.5 12.5h230.314c6.893 0 12.5-5.607 12.5-12.5v-56.05c0-4.142-3.358-7.5-7.5-7.5s-7.5 3.358-7.5 7.5v53.55h-93.661v-68.758c0-4.675-1.82-9.069-5.125-12.375l-17.136-17.135c-3.305-3.305-7.699-5.125-12.374-5.125h-19.529c-3.285-11.744-14.075-20.386-26.854-20.386-15.377 0-27.888 12.511-27.888 27.888s12.511 27.888 27.888 27.888c12.779 0 23.57-8.644 26.854-20.391h19.528c.668 0 1.296.26 1.768.731l17.136 17.135c.472.472.732 1.1.732 1.768v68.758h-116.653v-225.312h93.661v68.758c0 4.675 1.82 9.069 5.125 12.375l17.136 17.135c3.305 3.305 7.699 5.125 12.374 5.125h19.529c3.285 11.744 14.075 20.386 26.854 20.386 15.377 0 27.888-12.511 27.888-27.888s-12.511-27.888-27.888-27.888c-12.779 0-23.57 8.644-26.854 20.391h-19.528c-.668 0-1.296-.26-1.768-.731l-17.136-17.135c-.472-.472-.732-1.1-.732-1.768v-68.758h116.654v136.764c0 4.142 3.358 7.5 7.5 7.5s7.5-3.358 7.5-7.5v-139.266c-.001-6.893-5.608-12.5-12.501-12.5zm-177.178 157.313c-7.106 0-12.888-5.782-12.888-12.888s5.782-12.888 12.888-12.888 12.887 5.78 12.887 12.886c0 7.107-5.781 12.89-12.887 12.89zm124.042-59.312c7.106 0 12.888 5.782 12.888 12.888s-5.782 12.888-12.888 12.888-12.887-5.78-12.887-12.886c0-7.107 5.781-12.89 12.887-12.89z" fill="#093a94" data-original="#000000" style="" class=""/><path d="m485.35 282.65c14.695 0 26.65-11.955 26.65-26.65s-11.955-26.65-26.65-26.65h-63.182v-36.925h63.182c14.695 0 26.65-11.955 26.65-26.65s-11.955-26.65-26.65-26.65h-15.402c-4.142 0-7.5 3.358-7.5 7.5s3.358 7.5 7.5 7.5h15.402c6.424 0 11.65 5.226 11.65 11.65s-5.226 11.65-11.65 11.65h-63.182v-23.3h12.78c4.142 0 7.5-3.358 7.5-7.5s-3.358-7.5-7.5-7.5h-12.78v-31.793c0-9.649-7.851-17.5-17.5-17.5h-31.793v-63.182c0-14.695-11.955-26.65-26.65-26.65s-26.65 11.955-26.65 26.65v63.182h-36.925v-63.182c0-14.695-11.955-26.65-26.65-26.65s-26.65 11.955-26.65 26.65v63.182h-36.925v-63.182c0-14.695-11.955-26.65-26.65-26.65s-26.65 11.955-26.65 26.65v63.182h-31.793c-9.649 0-17.5 7.851-17.5 17.5v31.793h-63.182c-14.695 0-26.65 11.955-26.65 26.65s11.955 26.65 26.65 26.65h63.182v36.925h-63.182c-14.695 0-26.65 11.955-26.65 26.65s11.955 26.65 26.65 26.65h63.182v36.925h-63.182c-14.695 0-26.65 11.955-26.65 26.65s11.955 26.65 26.65 26.65h12.993c4.142 0 7.5-3.358 7.5-7.5s-3.358-7.5-7.5-7.5h-12.993c-6.424 0-11.65-5.226-11.65-11.65s5.226-11.65 11.65-11.65h63.182v23.3h-15.189c-4.142 0-7.5 3.358-7.5 7.5s3.358 7.5 7.5 7.5h15.188v31.793c0 9.649 7.851 17.5 17.5 17.5h31.793v63.182c0 14.695 11.955 26.65 26.65 26.65s26.65-11.955 26.65-26.65v-63.182h36.925v63.182c0 14.695 11.955 26.65 26.65 26.65s26.65-11.955 26.65-26.65v-63.182h36.925v63.182c0 14.695 11.955 26.65 26.65 26.65s26.65-11.955 26.65-26.65v-63.182h31.793c9.649 0 17.5-7.851 17.5-17.5v-31.793h63.182c14.695 0 26.65-11.955 26.65-26.65s-11.955-26.65-26.65-26.65h-63.182v-36.925zm0-38.3c6.424 0 11.65 5.226 11.65 11.65s-5.226 11.65-11.65 11.65h-63.182v-23.3zm-150.775-217.7c0-6.424 5.226-11.65 11.65-11.65s11.65 5.226 11.65 11.65v63.182h-23.3zm-90.225 0c0-6.424 5.226-11.65 11.65-11.65s11.65 5.226 11.65 11.65v63.182h-23.3zm-90.225 0c0-6.424 5.226-11.65 11.65-11.65s11.65 5.226 11.65 11.65v63.182h-23.3zm-127.475 150.775c-6.424 0-11.65-5.226-11.65-11.65s5.226-11.65 11.65-11.65h63.182v23.3zm0 90.225c-6.424 0-11.65-5.226-11.65-11.65s5.226-11.65 11.65-11.65h63.182v23.3zm150.775 217.7c0 6.424-5.226 11.65-11.65 11.65s-11.65-5.226-11.65-11.65v-63.182h23.3zm90.225 0c0 6.424-5.226 11.65-11.65 11.65s-11.65-5.226-11.65-11.65v-63.182h23.3zm90.225 0c0 6.424-5.226 11.65-11.65 11.65s-11.65-5.226-11.65-11.65v-63.182h23.3zm49.293-80.682c0 1.378-1.122 2.5-2.5 2.5h-297.336c-1.378 0-2.5-1.122-2.5-2.5v-297.336c0-1.378 1.122-2.5 2.5-2.5h297.337c1.378 0 2.5 1.122 2.5 2.5v297.336zm78.182-70.093c6.424 0 11.65 5.226 11.65 11.65s-5.226 11.65-11.65 11.65h-63.182v-23.3z" fill="#093a94" data-original="#000000" style="" class=""/></g></g></svg>
