<svg width="36" height="35" viewBox="0 0 36 35" fill="none" xmlns="http://www.w3.org/2000/svg">
<mask id="path-1-inside-1" fill="white">
<path fill-rule="evenodd" clip-rule="evenodd" d="M4.64722 0.125L13.1912 8.43718L9.12806 12.6136L22.8402 25.8429L26.8816 21.6133L35.5 29.8483L31.4207 34.1176L31.0381 33.7521L31.4028 34.1039C25.1258 34.3608 17.7049 31.6435 11.3854 26.198C3.96227 19.8015 0.0377121 11.3456 0.543479 4.3709L0.529623 4.35742L0.545681 4.34091L0.546198 4.33398L0.549407 4.33708L4.64722 0.125Z"/>
</mask>
<path d="M13.1912 8.43718L14.6247 9.83182L16.0194 8.39829L14.5858 7.00366L13.1912 8.43718ZM4.64722 0.125L6.04185 -1.30853L4.60833 -2.70316L3.21369 -1.26963L4.64722 0.125ZM9.12806 12.6136L7.69453 11.219L6.29407 12.6585L7.73941 14.053L9.12806 12.6136ZM22.8402 25.8429L21.4516 27.2822L22.8979 28.6776L24.2862 27.2246L22.8402 25.8429ZM26.8816 21.6133L28.2633 20.1673L26.8173 18.7856L25.4356 20.2317L26.8816 21.6133ZM35.5 29.8483L36.946 31.23L38.3277 29.784L36.8817 28.4023L35.5 29.8483ZM31.4207 34.1176L30.039 35.5636L31.485 36.9453L32.8667 35.4993L31.4207 34.1176ZM31.0381 33.7521L32.4198 32.3061L29.6495 35.1914L31.0381 33.7521ZM31.4028 34.1039L31.4845 36.1022L36.1564 35.9111L32.7914 32.6646L31.4028 34.1039ZM11.3854 26.198L12.691 24.6829L11.3854 26.198ZM0.543479 4.3709L2.53824 4.51555L2.60559 3.58674L1.93811 2.93737L0.543479 4.3709ZM0.529623 4.35742L-0.903912 2.96279L-2.29853 4.39632L-0.865007 5.79095L0.529623 4.35742ZM0.545681 4.34091L1.97922 5.73554L2.48607 5.21454L2.54014 4.4897L0.545681 4.34091ZM0.546198 4.33398L1.93485 2.89466L-1.13131 -0.0635398L-1.44826 4.1852L0.546198 4.33398ZM0.549407 4.33708L-0.839241 5.77641L0.594098 7.15928L1.98293 5.73172L0.549407 4.33708ZM14.5858 7.00366L6.04185 -1.30853L3.25258 1.55853L11.7966 9.87071L14.5858 7.00366ZM10.5616 14.0083L14.6247 9.83182L11.7577 7.04255L7.69453 11.219L10.5616 14.0083ZM24.2289 24.4036L10.5167 11.1743L7.73941 14.053L21.4516 27.2822L24.2289 24.4036ZM24.2862 27.2246L28.3276 22.995L25.4356 20.2317L21.3942 24.4612L24.2862 27.2246ZM25.4999 23.0594L34.1183 31.2943L36.8817 28.4023L28.2633 20.1673L25.4999 23.0594ZM34.054 28.4666L29.9746 32.7359L32.8667 35.4993L36.946 31.23L34.054 28.4666ZM32.8023 32.6716L32.4198 32.3061L29.6564 35.1981L30.039 35.5636L32.8023 32.6716ZM32.7914 32.6646L32.4267 32.3127L29.6495 35.1914L30.0141 35.5432L32.7914 32.6646ZM10.0799 27.7131C16.7062 33.4231 24.6068 36.3837 31.4845 36.1022L31.321 32.1056C25.6448 32.3378 18.7036 29.864 12.691 24.6829L10.0799 27.7131ZM-1.45128 4.22625C-2.01501 12.0002 2.32131 21.0276 10.0799 27.7131L12.691 24.6829C5.60323 18.5754 2.09043 10.691 2.53824 4.51555L-1.45128 4.22625ZM-0.865007 5.79095L-0.851151 5.80443L1.93811 2.93737L1.92425 2.92389L-0.865007 5.79095ZM-0.887854 2.94629L-0.903912 2.96279L1.96316 5.75204L1.97922 5.73554L-0.887854 2.94629ZM-1.44826 4.1852L-1.44878 4.19213L2.54014 4.4897L2.54066 4.48277L-1.44826 4.1852ZM1.93806 2.89776L1.93485 2.89466L-0.842451 5.77331L-0.839241 5.77641L1.93806 2.89776ZM3.21369 -1.26963L-0.884118 2.94245L1.98293 5.73172L6.08074 1.51963L3.21369 -1.26963Z" fill="black" mask="url(#path-1-inside-1)"/>
</svg>
