<svg width="32" height="32" viewBox="0 0 32 32" fill="none" xmlns="http://www.w3.org/2000/svg">
<mask id="path-1-inside-1" fill="white">
<path fill-rule="evenodd" clip-rule="evenodd" d="M5.31775 2.5L12.1529 9.14975L8.9024 12.4909L19.8721 23.0743L23.1053 19.6906L30 26.2786L26.7365 29.694L26.4161 29.3878L26.7222 29.6832C21.7006 29.8886 15.7639 27.7148 10.7083 23.3585C4.76981 18.2412 1.63017 11.4765 2.03478 5.89674L2.02367 5.88593L2.03655 5.8727L2.03696 5.86725L2.03948 5.86969L5.31775 2.5Z"/>
</mask>
<path d="M12.1529 9.14975L13.5865 10.5444L14.9811 9.11086L13.5476 7.71622L12.1529 9.14975ZM5.31775 2.5L6.71238 1.06647L5.27886 -0.32816L3.88422 1.10537L5.31775 2.5ZM8.9024 12.4909L7.46888 11.0963L6.06841 12.5358L7.51376 13.9302L8.9024 12.4909ZM19.8721 23.0743L18.4835 24.5137L19.9298 25.909L21.3181 24.456L19.8721 23.0743ZM23.1053 19.6906L24.487 18.2446L23.041 16.8629L21.6593 18.3089L23.1053 19.6906ZM30 26.2786L31.446 27.6603L32.8277 26.2143L31.3817 24.8326L30 26.2786ZM26.7365 29.694L25.3549 31.14L26.8009 32.5217L28.1825 31.0757L26.7365 29.694ZM26.4161 29.3878L27.7977 27.9418L25.0274 30.8271L26.4161 29.3878ZM26.7222 29.6832L26.804 31.6815L31.4758 31.4903L28.1108 28.2438L26.7222 29.6832ZM10.7083 23.3585L12.0139 21.8434L12.0139 21.8434L10.7083 23.3585ZM2.03478 5.89674L4.02955 6.04139L4.0969 5.11259L3.42942 4.46322L2.03478 5.89674ZM2.02367 5.88593L0.590154 4.49129L-0.804486 5.92481L0.629033 7.31945L2.02367 5.88593ZM2.03655 5.8727L3.47007 7.26734L3.97694 6.74634L4.03101 6.02148L2.03655 5.8727ZM2.03696 5.86725L3.42556 4.42788L0.359428 1.46987L0.0424972 5.71847L2.03696 5.86725ZM2.03948 5.86969L0.650874 7.30905L2.08421 8.69184L3.47301 7.26432L2.03948 5.86969ZM13.5476 7.71622L6.71238 1.06647L3.92311 3.93353L10.7583 10.5833L13.5476 7.71622ZM10.3359 13.8856L13.5865 10.5444L10.7194 7.75511L7.46888 11.0963L10.3359 13.8856ZM21.2608 21.635L10.291 11.0516L7.51376 13.9302L18.4835 24.5137L21.2608 21.635ZM21.3181 24.456L24.5513 21.0723L21.6593 18.3089L18.4261 21.6926L21.3181 24.456ZM21.7236 21.1366L28.6183 27.7246L31.3817 24.8326L24.487 18.2446L21.7236 21.1366ZM28.554 24.8969L25.2905 28.3123L28.1825 31.0757L31.446 27.6603L28.554 24.8969ZM28.1182 28.248L27.7977 27.9418L25.0344 30.8338L25.3549 31.14L28.1182 28.248ZM28.1108 28.2438L27.8047 27.9485L25.0274 30.8271L25.3335 31.1225L28.1108 28.2438ZM9.40277 24.8735C14.7652 29.4944 21.1816 31.9115 26.804 31.6815L26.6404 27.6848C22.2196 27.8657 16.7626 25.9353 12.0139 21.8434L9.40277 24.8735ZM0.0400208 5.75209C-0.422553 12.1311 3.12885 19.4673 9.40277 24.8735L12.0139 21.8434C6.41077 17.0151 3.68289 10.8219 4.02955 6.04139L0.0400208 5.75209ZM0.629033 7.31945L0.640142 7.33026L3.42942 4.46322L3.41831 4.45242L0.629033 7.31945ZM0.60303 4.47806L0.590154 4.49129L3.45719 7.28057L3.47007 7.26734L0.60303 4.47806ZM0.0424972 5.71847L0.0420906 5.72392L4.03101 6.02148L4.03141 6.01603L0.0424972 5.71847ZM3.42809 4.43032L3.42556 4.42788L0.648348 7.30661L0.650874 7.30905L3.42809 4.43032ZM3.88422 1.10537L0.605956 4.47505L3.47301 7.26432L6.75127 3.89463L3.88422 1.10537Z" fill="black" mask="url(#path-1-inside-1)"/>
</svg>
