<svg width="120" height="120" viewBox="0 0 120 120" fill="none" xmlns="http://www.w3.org/2000/svg">
<path d="M105 77.3601V26.25C105 25.9017 104.903 25.5603 104.72 25.2639C104.537 24.9676 104.275 24.728 103.964 24.5718L58.9641 2.07184C58.7123 1.94669 58.4357 1.87962 58.1546 1.87556C57.8735 1.87151 57.5951 1.93057 57.3398 2.0484L8.58985 24.5484C8.26428 24.6978 7.98849 24.9376 7.79528 25.2393C7.60208 25.5409 7.49958 25.8917 7.5 26.25V86.25C7.49958 86.6082 7.60208 86.959 7.79528 87.2606C7.98849 87.5623 8.26428 87.8021 8.58985 87.9515L57.3398 110.452C57.595 110.57 57.8735 110.629 58.1546 110.625C58.4358 110.621 58.7124 110.554 58.9641 110.428L71.1328 104.341C72.4783 107.547 74.5485 110.397 77.1807 112.668C79.8129 114.939 82.9357 116.569 86.3038 117.43C89.6719 118.292 93.1939 118.361 96.5931 117.632C99.9924 116.903 103.177 115.396 105.896 113.23C108.615 111.064 110.795 108.297 112.265 105.147C113.735 101.996 114.455 98.5479 114.368 95.0724C114.281 91.597 113.39 88.189 111.765 85.1158C110.139 82.0426 107.824 79.388 105 77.3601V77.3601ZM77.6672 15.6164L37.5797 37.2023L27.3094 32.4632L68.5102 11.039L77.6672 15.6164ZM35.625 40.4297V70.282L26.25 66.2625V36.1031L35.625 40.4297ZM58.0922 5.83122L64.3664 8.96715L23.5102 30.2109C23.3556 30.2918 23.2128 30.3935 23.0859 30.5132L13.8492 26.25L58.0922 5.83122ZM56.25 105.82L11.25 85.05V29.1797L22.5 34.3734V67.5C22.5002 67.8668 22.608 68.2256 22.81 68.5318C23.0121 68.838 23.2995 69.0782 23.6367 69.2226L36.7617 74.8476C36.9947 74.9487 37.246 75.0006 37.5 75C37.9973 75 38.4742 74.8024 38.8258 74.4508C39.1775 74.0992 39.375 73.6222 39.375 73.125V42.1617L56.25 49.95V105.82ZM58.0922 46.6687L41.8383 39.1687L81.7688 17.6672L98.932 26.25L58.0922 46.6687ZM69.9609 100.737L60 105.717V49.9078L101.25 29.2828V75.1734C97.4246 73.4216 93.1848 72.7773 89.0118 73.3135C84.8387 73.8497 80.8995 75.545 77.6413 78.207C74.3831 80.869 71.9363 84.391 70.5788 88.3734C69.2212 92.3557 69.0071 96.6388 69.9609 100.737V100.737ZM91.875 114.375C88.1666 114.375 84.5415 113.275 81.4581 111.215C78.3746 109.155 75.9714 106.226 74.5523 102.8C73.1331 99.3742 72.7618 95.6042 73.4853 91.967C74.2087 88.3299 75.9945 84.9889 78.6167 82.3667C81.239 79.7445 84.5799 77.9587 88.2171 77.2352C91.8542 76.5118 95.6242 76.8831 99.0503 78.3022C102.476 79.7214 105.405 82.1246 107.465 85.208C109.525 88.2914 110.625 91.9166 110.625 95.625C110.619 100.596 108.642 105.362 105.127 108.877C101.612 112.392 96.846 114.369 91.875 114.375V114.375Z" fill="black"/>
<path d="M99.9241 90.5491L90 100.473L85.7009 96.1741C85.3492 95.8224 84.8723 95.6249 84.375 95.6249C83.8777 95.6249 83.4008 95.8224 83.0491 96.1741C82.6975 96.5257 82.4999 97.0026 82.4999 97.4999C82.4999 97.9972 82.6975 98.4742 83.0491 98.8258L88.6741 104.451C88.8482 104.625 89.0549 104.763 89.2824 104.857C89.5099 104.951 89.7538 105 90 105C90.2462 105 90.4901 104.951 90.7175 104.857C90.945 104.763 91.1517 104.625 91.3259 104.451L102.576 93.2008C102.75 93.0267 102.888 92.82 102.982 92.5925C103.077 92.365 103.125 92.1212 103.125 91.8749C103.125 91.6287 103.077 91.3849 102.982 91.1574C102.888 90.9299 102.75 90.7232 102.576 90.5491C102.402 90.375 102.195 90.2368 101.968 90.1426C101.74 90.0484 101.496 89.9999 101.25 89.9999C101.004 89.9999 100.76 90.0484 100.532 90.1426C100.305 90.2368 100.098 90.375 99.9241 90.5491V90.5491Z" fill="black"/>
</svg>
