<svg width="120" height="120" viewBox="0 0 120 120" fill="none" xmlns="http://www.w3.org/2000/svg">
<path d="M45.2384 19.4336L57.7573 8.77746C59.6351 7.17914 62.3977 7.18843 64.2646 8.79933L76.5891 19.4336M45.2384 19.4336H31.4706C28.7092 19.4336 26.4706 21.6721 26.4706 24.4336V34.1671M45.2384 19.4336H76.5891M26.4706 57.3509L10.9019 47.1673M26.4706 57.3509V34.1671M26.4706 57.3509L46.8068 70.8694M94.7171 57.3509V34.1671M94.7171 57.3509L109.859 47.1673M94.7171 57.3509L74.883 70.8694M76.5891 19.4336H86.3995H89.7171C92.4785 19.4336 94.7171 21.6721 94.7171 24.4336V34.1671M94.7171 34.1671L109.859 47.1673M109.859 47.1673C109.859 47.1673 110.926 102.418 109.859 105.018M10.9019 47.1673L26.4706 34.1671M10.9019 47.1673C10.9019 47.1673 9.62232 103.285 10.9019 105.018M10.9019 105.018C13.2479 106.535 107.727 106.102 109.859 105.018M10.9019 105.018C24.9236 91.6823 46.8068 70.8694 46.8068 70.8694M109.859 105.018L74.883 70.8694M74.883 70.8694L63.8015 78.4223C62.1201 79.5683 59.912 79.5811 58.2175 78.4547L46.8068 70.8694" stroke="black" stroke-width="4"/>
<path d="M54.2083 41.2987C55.9856 41.2987 57.4199 39.8324 57.4199 38.0359C57.4199 36.3468 58.7879 35.016 60.4217 35.0602C61.959 35.0972 63.2415 36.3979 63.2779 37.9619C63.3239 39.9455 61.9967 40.2124 60.3725 42.1666C58.3581 44.576 57.1373 47.65 57.1373 51.148C57.1373 52.9416 58.5686 54.4108 60.3489 54.4108C62.0226 54.4108 63.5605 53.0872 63.5605 51.0457C63.5605 49.0165 64.3957 47.024 66.2711 45.388C68.5102 43.5256 69.7687 40.7601 69.6989 37.8075C69.5812 32.7284 65.5731 28.6564 60.5716 28.5368C55.3459 28.4026 50.9967 32.6712 50.9967 38.0359C50.9967 39.8369 52.4355 41.2987 54.2083 41.2987V41.2987Z" fill="black"/>
<path d="M60.3489 56.0095C58.5761 56.0095 57.1373 57.4691 57.1373 59.2723V61.1821C57.1373 62.988 58.5791 64.4449 60.3489 64.4449C62.1193 64.4449 63.5605 62.9876 63.5605 61.1821V59.2723C63.5605 57.4691 62.1217 56.0095 60.3489 56.0095Z" fill="black"/>
</svg>
