<svg width="120" height="120" viewBox="0 0 120 120" fill="none" xmlns="http://www.w3.org/2000/svg">
<path d="M27.2638 64.0141V22.0325C27.2638 20.3756 28.607 19.0325 30.2638 19.0325H90.7814C92.4383 19.0325 93.7814 20.3756 93.7814 22.0325V64.0141" stroke="black" stroke-width="3" stroke-linecap="round" stroke-linejoin="round"/>
<path d="M27.2638 34.5618L9.43081 47.1365C7.74899 48.3224 7.73327 50.8109 9.39998 52.018L58.2266 87.3789C59.2722 88.1361 60.685 88.1395 61.7343 87.3872L111.16 51.9501C112.812 50.7659 112.833 48.3166 111.202 47.1043L94.3266 34.5618" stroke="black" stroke-width="3" stroke-linecap="round" stroke-linejoin="round"/>
<path d="M8.18091 50.0912V104.389C8.18091 106.046 9.52405 107.389 11.1809 107.389H109.319C110.976 107.389 112.319 106.046 112.319 104.389V50.0912" stroke="black" stroke-width="3" stroke-linecap="round" stroke-linejoin="round"/>
<path d="M48.5276 19.0324L57.095 12.3894C58.1553 11.5673 59.6324 11.5491 60.7126 12.3448L69.7915 19.0324" stroke="black" stroke-width="3" stroke-linecap="round" stroke-linejoin="round"/>
<path d="M9.81659 106.854L42.5302 76.866" stroke="black" stroke-width="3" stroke-linecap="round" stroke-linejoin="round"/>
<path d="M111.317 105.689L78.4263 75.8891" stroke="black" stroke-width="3" stroke-linecap="round" stroke-linejoin="round"/>
<path d="M52.443 44.5782C54.308 44.5782 55.8131 43.2431 55.8131 41.6073C55.8131 40.0694 57.2485 38.8577 58.963 38.8979C60.5762 38.9316 61.922 40.1159 61.9602 41.54C62.0085 43.3461 60.6157 43.5891 58.9113 45.3685C56.7976 47.5623 55.5165 50.3613 55.5165 53.5463C55.5165 55.1795 57.0185 56.5171 58.8866 56.5171C60.6429 56.5171 62.2567 55.312 62.2567 53.4532C62.2567 51.6055 63.1332 49.7913 65.1011 48.3017C67.4507 46.6059 68.7714 44.0878 68.6981 41.3994C68.5746 36.7747 64.3687 33.0671 59.1203 32.9581C53.6367 32.8359 49.0729 36.7226 49.0729 41.6073C49.0729 43.2472 50.5827 44.5782 52.443 44.5782V44.5782Z" fill="black"/>
<path d="M58.8869 58.6592C57.0811 58.6592 55.6156 59.9564 55.6156 61.559V63.2563C55.6156 64.8613 57.0842 66.1561 58.8869 66.1561C60.6903 66.1561 62.1583 64.8609 62.1583 63.2563V61.559C62.1583 59.9564 60.6927 58.6592 58.8869 58.6592Z" fill="black"/>
</svg>
