<svg width="124" height="120" viewBox="0 0 124 120" fill="none" xmlns="http://www.w3.org/2000/svg">
<path d="M76 21.8856V71.8856" stroke="#807B7B"/>
<path d="M111.496 57.8856L40 58.6521" stroke="#807B7B"/>
<path d="M61 41.3856C73.5 47.8856 88.2844 44.5941 103.932 36.4502" stroke="#807B7B"/>
<path d="M76.5599 72.0865C65.0691 72.9107 59.3658 75.0225 48 80.8855" stroke="#807B7B"/>
<path d="M93.8652 57.0397C95.8805 44.5915 92.4395 37.4117 85 23.8856" stroke="#807B7B" stroke-linecap="round"/>
<path d="M66.5 23.8856C62.0448 29.7392 60.3667 33.3018 59.5 40.3856" stroke="#807B7B"/>
<path d="M57 56.8856C56.8001 67.9274 58.6693 75.7445 65.5 92.3856" stroke="#807B7B"/>
<path d="M45.5 40.8857C33 61.3857 45.5 90.3856 66 92.8856" stroke="#807B7B"/>
<path d="M109 71.8869C121 46.8856 96.9999 12.8856 63.0003 24.8869" stroke="#807B7B"/>
<path d="M6 37.5L15.5 28" stroke="black" stroke-width="1.5" stroke-linecap="round" stroke-linejoin="round"/>
<path d="M22 36L28 30" stroke="black" stroke-width="1.5" stroke-linecap="round" stroke-linejoin="round"/>
<path d="M64.0698 115.8C67.1981 119.072 68.6923 118.882 71.0581 116.204" stroke="black" stroke-width="2" stroke-linecap="round"/>
<path d="M77.9939 116.502C74.8132 113.281 73.3222 113.495 71 116.21" stroke="black" stroke-width="2" stroke-linecap="round"/>
<path d="M77.1279 115.8C80.2562 119.072 81.7504 118.882 84.1162 116.204" stroke="black" stroke-width="2" stroke-linecap="round"/>
<path d="M91.052 116.502C87.8713 113.281 86.3803 113.495 84.0581 116.21" stroke="black" stroke-width="2" stroke-linecap="round"/>
<path d="M90.1279 115.8C93.2562 119.072 94.7504 118.882 97.1162 116.204" stroke="black" stroke-width="2" stroke-linecap="round"/>
<path d="M104.052 116.502C100.871 113.281 99.3803 113.495 97.0581 116.21" stroke="black" stroke-width="2" stroke-linecap="round"/>
<path d="M103.186 115.8C106.314 119.072 107.809 118.882 110.174 116.204" stroke="black" stroke-width="2" stroke-linecap="round"/>
<path d="M117.11 116.502C113.929 113.281 112.438 113.495 110.116 116.21" stroke="black" stroke-width="2" stroke-linecap="round"/>
<path d="M74.125 110L64 89L91 80.5L118 89L107.875 110" stroke="black" stroke-width="3" stroke-linecap="round" stroke-linejoin="round"/>
<path d="M91 80.5V109.5" stroke="black" stroke-width="3" stroke-linecap="round" stroke-linejoin="round"/>
<path d="M70.75 86.5V72.5H112.375V86.5" stroke="black" stroke-width="3" stroke-linejoin="round"/>
<path d="M78.625 72.5V64.5H104.5V72.5" stroke="black" stroke-width="3" stroke-linejoin="round"/>
<path d="M84.25 64.5V57H98.875V64.5" stroke="black" stroke-width="3" stroke-linejoin="round"/>
<path d="M66.6673 45.9413L71.9808 40.7207" stroke="black" stroke-width="1.5" stroke-linecap="round" stroke-linejoin="round"/>
<path d="M37.9739 71.0001L49.6638 59.5149" stroke="black" stroke-width="1.5" stroke-linecap="round" stroke-linejoin="round"/>
<path d="M72.8335 6.72208C73.4778 7.37553 73.6884 8.75551 72.581 11.4028C71.5333 13.9074 69.5446 16.9314 67.0728 20.1075C62.1477 26.4357 55.5715 33.0334 51.6997 36.7183C47.9359 40.3004 41.3074 44.8755 35.2081 48.166C32.16 49.8105 29.316 51.0946 27.0825 51.7768C25.9596 52.1198 25.0674 52.2865 24.4193 52.3024C23.8092 52.3174 23.6348 52.1962 23.6286 52.1936C23.5868 52.1507 23.499 52.0366 23.5022 51.6833C23.5058 51.2844 23.6305 50.6998 23.9518 49.9058C24.5929 48.3211 25.8616 46.2722 27.6279 43.8813C31.1436 39.1226 36.3788 33.3411 41.6486 27.7746C46.8896 22.2385 53.8126 15.6797 60.0555 11.1992C63.19 8.94955 66.0583 7.29359 68.3982 6.51675C70.802 5.71871 72.1205 5.99893 72.8335 6.72208Z" stroke="black" stroke-width="3"/>
<path d="M27.3467 44.8979H14C13.4477 44.8979 13 45.3457 13 45.8979V46.2494C13 46.6875 13.2852 47.0747 13.7037 47.2045L22.7236 50.003C22.963 50.0773 23.1657 50.2387 23.2917 50.4554L25.2213 53.7729M25.2213 53.7729L28.6906 62.5379C28.8416 62.9194 29.2102 63.1699 29.6204 63.1699H29.6496C30.155 63.1699 30.5809 62.7928 30.6422 62.2911L31.8968 52.019C31.9947 51.2171 31.1506 50.6361 30.4366 51.0138L25.2213 53.7729ZM58.4503 33.1082L62.311 57.2893C62.3748 57.6888 62.1916 58.0874 61.8468 58.2991L59.1278 59.9688C58.6163 60.2828 57.9453 60.0787 57.6953 59.533L48.9119 40.356C48.7275 39.9535 48.8298 39.4776 49.1633 39.1864L56.805 32.5126C57.3969 31.9957 58.3264 32.3321 58.4503 33.1082ZM46.7115 19.5355L19.9827 15.2382C19.6107 15.1784 19.2367 15.3328 19.0151 15.6375L17.4185 17.8337C17.0535 18.3357 17.2293 19.0456 17.7864 19.3193L38.382 29.4368C38.7721 29.6284 39.2412 29.5461 39.5428 29.2333L47.2726 21.2169C47.8333 20.6355 47.509 19.6637 46.7115 19.5355Z" stroke="black" stroke-width="3"/>
</svg>
