<?xml version="1.0" standalone="no"?>
<!DOCTYPE svg PUBLIC "-//W3C//DTD SVG 20010904//EN"
 "http://www.w3.org/TR/2001/REC-SVG-20010904/DTD/svg10.dtd">
<svg version="1.0" xmlns="http://www.w3.org/2000/svg"
 width="256.000000pt" height="256.000000pt" viewBox="0 0 256.000000 256.000000"
 preserveAspectRatio="xMidYMid meet">

<g transform="translate(0.000000,256.000000) scale(0.100000,-0.100000)"
fill="#000000" stroke="none">
<path d="M470 2317 c-51 -13 -86 -42 -110 -93 l-22 -45 6 -817 c4 -449 9 -838
12 -864 6 -52 34 -100 75 -130 21 -16 54 -20 204 -28 166 -9 213 -5 193 16 -4
3 -83 10 -178 15 -192 10 -218 18 -245 75 -16 34 -18 109 -27 873 -7 596 -6
846 1 873 6 20 27 50 46 67 l36 31 343 0 c188 0 423 -3 522 -6 l179 -7 -3
-128 c-4 -147 7 -182 65 -226 32 -24 47 -27 166 -35 72 -5 133 -11 135 -13 2
-2 -2 -139 -9 -304 -7 -166 -9 -304 -5 -308 18 -18 23 36 35 323 11 266 11
307 -2 322 -8 9 -90 103 -182 207 -146 165 -173 191 -204 196 -58 11 -993 16
-1031 6z m1221 -232 l141 -160 -93 -3 c-103 -3 -133 5 -175 49 -28 30 -29 33
-31 155 -1 75 2 124 7 122 5 -2 73 -75 151 -163z"/>
<path d="M577 1923 c-4 -3 -7 -10 -7 -15 0 -4 124 -8 275 -8 238 0 275 2 275
15 0 13 -36 15 -268 15 -148 0 -272 -3 -275 -7z"/>
<path d="M578 1693 c-71 -18 36 -23 528 -23 432 0 545 3 542 13 -4 9 -119 12
-529 13 -288 1 -532 0 -541 -3z"/>
<path d="M575 1490 c-4 -6 -5 -13 -2 -16 8 -8 1053 -18 1072 -10 11 4 15 10 9
15 -15 14 -1071 24 -1079 11z"/>
<path d="M872 1162 c-31 -31 -272 -420 -272 -439 0 -11 24 -33 60 -57 61 -39
82 -42 147 -21 33 10 40 -18 14 -51 -28 -36 -27 -85 2 -112 13 -12 30 -22 39
-22 9 0 18 -12 21 -27 9 -44 30 -65 67 -68 28 -2 36 -8 41 -29 12 -42 28 -56
68 -56 30 0 39 -5 53 -30 16 -28 31 -35 68 -31 8 1 31 20 51 42 l36 41 87 -66
c91 -69 123 -79 163 -51 12 8 27 31 33 50 l12 35 28 -20 c15 -11 37 -20 47
-20 23 0 59 31 68 59 5 16 14 19 51 18 39 -2 49 2 70 26 13 15 24 34 24 42 0
10 9 12 33 8 72 -11 114 70 66 131 l-20 26 24 11 c20 9 30 8 48 -5 13 -9 35
-16 49 -16 32 0 164 81 168 104 4 19 -240 501 -269 531 -18 19 -19 19 -90 -15
-47 -23 -78 -45 -91 -65 -19 -33 -23 -71 -8 -95 23 -37 -56 -40 -132 -5 -64
30 -119 32 -210 7 -61 -17 -68 -18 -83 -3 -19 19 -100 20 -135 1 -51 -27 -77
-29 -120 -8 -36 18 -41 24 -35 46 11 46 -12 78 -86 117 -66 35 -69 35 -87 17z
m78 -47 c59 -30 74 -53 60 -91 -14 -35 -212 -335 -233 -353 -10 -8 -27 -11
-43 -7 -31 8 -106 56 -102 66 11 26 255 409 261 410 4 0 30 -11 57 -25z m1091
-192 c61 -120 120 -232 130 -249 l19 -32 -61 -36 c-70 -42 -97 -45 -127 -13
-30 32 -212 407 -212 438 0 14 10 35 23 46 21 20 94 62 109 63 3 0 57 -98 119
-217z m-858 26 c60 20 127 28 139 16 3 -3 -1 -22 -8 -43 -14 -38 -16 -144 -5
-197 8 -36 47 -61 83 -52 28 7 92 62 100 86 6 21 436 -256 444 -287 8 -30 -22
-65 -49 -56 -23 7 -210 124 -276 172 -40 29 -61 33 -61 12 0 -10 98 -80 197
-141 40 -24 73 -51 73 -59 0 -29 -30 -60 -59 -60 -27 0 -132 59 -222 126 -49
36 -69 42 -69 21 0 -7 45 -43 101 -80 103 -71 119 -89 102 -115 -24 -39 -37
-36 -141 37 -56 39 -106 71 -112 71 -26 0 -5 -31 45 -64 47 -31 55 -41 55 -68
0 -34 -24 -68 -47 -68 -17 0 -81 43 -137 92 -35 31 -39 39 -40 84 -1 45 -4 50
-33 64 -24 11 -33 22 -33 41 0 39 -36 79 -70 79 -22 0 -30 6 -38 29 -14 40
-54 65 -92 58 -23 -5 -32 -2 -40 13 -22 42 -71 48 -105 14 -20 -20 -59 -9 -50
14 3 9 46 78 96 153 l89 136 50 -25 50 -25 63 22z m437 5 c45 -21 65 -25 111
-21 l55 5 87 -174 87 -174 -34 -16 -33 -16 -179 114 c-232 149 -225 146 -239
122 -16 -29 -84 -94 -99 -94 -24 0 -35 24 -41 90 -5 43 -2 78 7 105 12 37 18
42 78 62 87 29 133 28 200 -3z m-662 -296 c22 -22 12 -52 -34 -110 -48 -62
-76 -72 -94 -37 -14 26 -10 36 41 104 41 55 64 66 87 43z m116 -54 c29 -28 19
-63 -39 -135 -59 -73 -94 -88 -115 -50 -18 35 -11 58 41 122 68 86 83 94 113
63z m108 -91 c29 -26 22 -51 -38 -129 -57 -75 -88 -91 -111 -61 -25 31 -21 58
14 105 78 103 100 117 135 85z m90 -118 c10 -22 7 -31 -34 -82 -56 -71 -71
-81 -92 -64 -27 22 -18 60 26 117 48 61 81 71 100 29z"/>
</g>
</svg>
