<?xml version="1.0" standalone="no"?>
<!DOCTYPE svg PUBLIC "-//W3C//DTD SVG 20010904//EN"
 "http://www.w3.org/TR/2001/REC-SVG-20010904/DTD/svg10.dtd">
<svg version="1.0" xmlns="http://www.w3.org/2000/svg"
 width="256.000000pt" height="256.000000pt" viewBox="0 0 256.000000 256.000000"
 preserveAspectRatio="xMidYMid meet">

<g transform="translate(0.000000,256.000000) scale(0.100000,-0.100000)"
fill="#000000" stroke="none">
<path d="M834 1993 l-421 -175 -7 -61 c-3 -33 -6 -281 -6 -552 0 -384 3 -495
13 -503 18 -16 879 -412 894 -412 29 0 383 146 383 157 0 21 -19 16 -198 -56
l-172 -69 0 501 c0 276 -3 512 -6 523 -5 18 3 25 63 48 37 15 231 95 430 177
199 82 366 149 370 149 4 0 6 -30 4 -67 -2 -38 0 -164 4 -280 6 -172 10 -213
21 -213 12 0 14 48 14 279 0 154 -4 290 -9 303 -7 19 -96 62 -467 226 -253
111 -466 202 -474 201 -8 0 -205 -79 -436 -176z m547 101 c57 -25 112 -51 123
-56 15 -8 -58 -42 -390 -182 l-409 -173 -117 56 c-64 31 -117 58 -117 61 -1 5
784 337 800 339 4 1 53 -20 110 -45z m272 -121 c48 -20 87 -40 87 -43 0 -3
-152 -73 -337 -155 -186 -82 -366 -161 -400 -176 l-61 -28 -7 -76 c-4 -42 -4
-121 0 -176 4 -67 3 -99 -4 -99 -6 0 -55 18 -110 41 l-99 41 5 177 c3 97 8
179 12 183 5 5 809 346 821 348 3 0 44 -16 93 -37z m319 -140 c98 -43 177 -80
178 -83 0 -3 -190 -83 -422 -178 l-422 -174 -120 57 c-67 31 -140 66 -163 78
l-43 22 398 177 c218 97 401 177 407 177 5 1 90 -34 187 -76z m-1401 -119
l131 -65 -7 -178 c-7 -178 -7 -178 15 -194 39 -27 229 -99 245 -93 14 5 16 29
13 171 -2 91 0 165 4 165 3 0 74 -33 156 -73 l150 -74 7 -521 c4 -287 5 -522
2 -522 -2 0 -76 33 -163 73 l-159 74 -3 151 -3 152 -125 59 c-152 73 -164 77
-175 60 -5 -8 -9 -66 -9 -129 0 -63 -4 -121 -8 -128 -6 -9 -34 0 -110 35
l-102 47 2 528 c2 290 4 528 6 528 1 0 61 -30 133 -66z m242 -901 l117 -57 0
-128 c0 -70 -3 -128 -6 -128 -4 0 -63 26 -131 57 -88 40 -122 61 -118 71 3 7
5 65 5 128 0 63 3 114 8 114 4 0 60 -25 125 -57z"/>
<path d="M1873 1126 c-104 -34 -194 -114 -241 -214 -24 -50 -27 -70 -27 -157
0 -95 2 -103 34 -163 39 -71 98 -128 169 -163 40 -20 62 -24 152 -24 95 0 110
3 163 28 74 37 147 110 184 184 25 53 28 68 28 163 0 96 -2 110 -29 163 -61
119 -174 190 -311 194 -47 2 -97 -3 -122 -11z m255 -45 c118 -61 186 -171 186
-301 0 -63 -4 -85 -31 -142 -124 -265 -482 -286 -618 -36 -41 75 -47 196 -14
283 30 80 121 173 199 203 76 30 214 27 278 -7z"/>
<path d="M2057 790 c-80 -60 -150 -110 -155 -110 -4 0 -24 27 -43 60 -37 65
-55 78 -77 56 -12 -12 -8 -25 34 -95 31 -52 57 -84 71 -87 28 -8 366 240 361
265 -7 38 -46 20 -191 -89z"/>
</g>
</svg>
