<?xml version="1.0" standalone="no"?>
<!DOCTYPE svg PUBLIC "-//W3C//DTD SVG 20010904//EN"
 "http://www.w3.org/TR/2001/REC-SVG-20010904/DTD/svg10.dtd">
<svg version="1.0" xmlns="http://www.w3.org/2000/svg"
 width="256.000000pt" height="256.000000pt" viewBox="0 0 256.000000 256.000000"
 preserveAspectRatio="xMidYMid meet">

<g transform="translate(0.000000,256.000000) scale(0.100000,-0.100000)"
fill="#000000" stroke="none">
<path d="M1185 2128 l-140 -113 -205 -5 -205 -5 -3 -161 -2 -161 -139 -111
-139 -111 5 -553 c3 -304 9 -557 13 -561 4 -5 224 -14 489 -21 380 -9 582 -9
962 0 265 7 484 16 487 19 8 8 21 1093 14 1113 -2 6 -64 60 -138 119 l-134
106 -2 161 -3 161 -205 5 -205 5 -140 113 c-77 61 -147 112 -155 112 -8 0 -78
-51 -155 -112z m279 -17 l124 -98 -67 -7 c-85 -8 -277 -8 -363 0 l-67 7 122
98 c67 54 123 98 125 99 1 0 58 -44 126 -99z m552 -491 l-6 -355 -335 -233
-336 -232 -337 233 -337 234 -3 354 -2 354 681 0 681 0 -6 -355z m-1386 -155
l0 -175 -87 60 c-48 34 -101 71 -117 84 l-30 23 115 91 c62 51 115 92 116 92
2 0 3 -79 3 -175z m1578 50 c59 -47 71 -61 60 -70 -7 -7 -59 -44 -115 -83
l-103 -72 0 176 0 176 43 -34 c23 -19 75 -60 115 -93z m74 -937 l-7 -177 -314
287 c-296 270 -313 287 -293 300 11 7 155 106 319 220 l298 207 2 -330 c2
-181 0 -410 -5 -507z m-1589 630 c161 -111 302 -209 314 -219 23 -17 22 -18
-290 -302 -171 -157 -314 -283 -316 -281 -9 8 -16 1004 -8 1004 4 0 139 -91
300 -202z m502 -348 c72 -49 137 -90 145 -90 8 0 73 41 145 90 71 50 133 89
138 87 5 -1 149 -131 321 -287 l312 -285 -130 -8 c-72 -5 -426 -9 -786 -9
-360 0 -714 4 -786 9 l-131 8 315 288 c173 158 318 287 321 287 3 0 65 -40
136 -90z"/>
<path d="M1282 1759 c-71 -35 -118 -128 -70 -137 11 -2 26 11 42 36 50 80 162
90 220 21 37 -44 35 -97 -5 -144 -22 -25 -43 -37 -70 -41 -21 -4 -43 -12 -49
-19 -6 -8 -10 -53 -8 -111 3 -91 5 -99 23 -99 18 0 21 10 30 82 l10 83 52 26
c77 38 114 108 99 189 -8 43 -59 103 -103 121 -48 21 -121 17 -171 -7z"/>
<path d="M1321 1174 c-12 -15 -21 -30 -21 -34 0 -16 43 -60 59 -60 31 0 61 30
61 60 0 30 -30 60 -61 60 -10 0 -27 -12 -38 -26z"/>
</g>
</svg>
