<?xml version="1.0" standalone="no"?>
<!DOCTYPE svg PUBLIC "-//W3C//DTD SVG 20010904//EN"
 "http://www.w3.org/TR/2001/REC-SVG-20010904/DTD/svg10.dtd">
<svg version="1.0" xmlns="http://www.w3.org/2000/svg"
 width="256.000000pt" height="256.000000pt" viewBox="0 0 256.000000 256.000000"
 preserveAspectRatio="xMidYMid meet">

<g transform="translate(0.000000,256.000000) scale(0.100000,-0.100000)"
fill="#000000" stroke="none">
<path d="M1387 2492 c-89 -46 -177 -112 -272 -203 l-70 -68 -300 55 c-165 30
-307 54 -316 54 -19 0 -81 -89 -72 -103 7 -11 449 -227 465 -227 20 0 -4 -34
-119 -166 l-118 -134 -148 0 c-162 0 -170 -3 -151 -59 10 -26 50 -45 150 -71
l41 -10 -15 -44 c-14 -38 -14 -46 -2 -61 9 -11 23 -15 39 -12 61 13 65 12 69
-8 9 -54 34 -125 48 -139 8 -9 28 -16 43 -16 27 0 29 3 35 53 3 28 6 90 6 137
l0 85 38 27 c20 14 63 49 95 77 32 28 60 51 61 51 2 0 -7 -27 -21 -61 -13 -33
-31 -90 -38 -127 -15 -69 -18 -253 -6 -307 5 -22 2 -38 -13 -59 l-20 -29 26 6
c23 6 26 3 38 -36 67 -224 276 -436 511 -517 45 -16 85 -32 89 -37 4 -4 38
-75 75 -158 75 -165 84 -180 97 -167 8 8 -57 164 -161 382 -17 35 -27 67 -23
71 6 6 468 169 478 169 2 0 4 -142 4 -315 0 -287 7 -368 24 -284 3 17 6 161 6
320 0 159 1 289 3 289 24 -2 501 -191 500 -199 -2 -5 -48 -105 -105 -221 -77
-159 -99 -213 -90 -222 9 -9 39 44 122 216 61 125 110 235 108 244 -2 9 -29
26 -67 41 l-63 25 7 145 c4 97 13 167 26 209 68 228 33 469 -98 676 -203 317
-588 454 -958 339 -11 -3 6 22 44 63 104 114 181 244 181 305 0 30 -36 59 -74
59 -21 0 -65 -16 -109 -38z m143 -7 c31 -37 -74 -209 -215 -350 -115 -116
-501 -456 -614 -540 -87 -65 -157 -107 -199 -120 -22 -6 -23 -5 -17 17 22 69
117 190 365 463 95 105 191 212 214 239 84 100 281 250 376 287 56 22 74 23
90 4z m-783 -241 l272 -48 -19 -25 c-11 -15 -48 -56 -82 -93 l-63 -68 -233
115 -234 115 22 31 c17 22 28 29 44 26 11 -3 143 -27 293 -53z m859 -216 c-3
-50 -6 -168 -6 -261 l0 -170 -77 7 c-43 3 -112 14 -153 24 l-75 17 -13 72
c-12 68 -11 75 9 115 37 73 100 160 162 226 58 60 62 62 110 62 l50 0 -7 -92z
m179 20 c52 -53 82 -93 108 -148 33 -68 87 -234 87 -265 0 -18 -111 -35 -245
-38 -99 -2 -110 0 -109 16 0 9 1 127 2 262 l2 245 41 0 c38 0 47 -6 114 -72z
m-371 10 c-26 -29 -69 -87 -96 -128 -27 -41 -51 -76 -53 -78 -1 -2 -8 28 -14
65 -7 37 -14 75 -17 84 -6 22 48 55 139 85 40 13 76 23 80 24 5 0 -13 -24 -39
-52z m489 7 c123 -50 251 -147 339 -259 l39 -49 -37 -25 c-44 -29 -145 -76
-196 -90 l-38 -10 -10 41 c-30 118 -45 159 -80 233 -23 47 -62 106 -92 139
l-52 58 34 -8 c19 -4 61 -18 93 -30z m-653 -346 c22 -145 42 -273 44 -284 4
-14 -4 -26 -28 -41 l-32 -22 -103 225 c-56 124 -101 229 -99 234 4 11 171 160
175 156 1 -2 21 -122 43 -268z m-237 72 c3 -14 1 -18 -9 -14 -15 6 -18 16 -7
26 9 10 10 9 16 -12z m-8 -43 c28 -19 45 -46 90 -145 47 -104 55 -131 55 -181
0 -32 -2 -61 -5 -63 -8 -9 -75 3 -69 12 13 22 -9 28 -36 9 -23 -16 -44 -20
-114 -20 l-86 0 0 28 c0 50 20 150 44 221 22 65 71 161 82 161 2 0 20 -10 39
-22z m1319 -75 c16 -31 36 -80 47 -110 21 -62 45 -204 37 -224 -4 -11 -35 -13
-152 -11 l-146 3 0 25 c0 20 -5 24 -27 24 -16 0 -33 4 -39 8 -6 4 -14 48 -17
99 -4 51 -8 97 -9 103 -2 6 36 26 85 44 48 18 109 47 135 64 26 17 50 31 53
31 3 1 18 -24 33 -56z m-1792 -43 c-30 -44 -43 -47 -117 -25 -79 24 -105 36
-105 51 0 11 25 14 125 14 l125 0 -28 -40z m870 -34 c40 -8 101 -17 136 -21
l63 -7 -3 -112 c-3 -108 -4 -111 -25 -110 -13 0 -87 1 -165 2 l-142 2 32 28
32 27 -15 95 c-18 119 -18 123 -1 117 8 -3 48 -13 88 -21z m593 -48 c3 -29 7
-78 8 -108 l2 -55 -73 3 c-93 5 -122 -2 -122 -29 0 -19 -5 -20 -92 -17 l-93 3
0 110 0 110 135 7 c74 3 153 11 175 16 22 6 43 10 47 11 4 1 9 -23 13 -51z
m-1330 -185 c-4 -33 -11 -53 -19 -53 -11 0 -56 125 -56 156 0 6 17 23 38 36
l37 25 3 -56 c2 -31 1 -80 -3 -108z m535 -1 c0 -26 -25 -5 -28 24 -2 28 -2 28
13 10 8 -11 15 -26 15 -34z m890 -67 l0 -65 -124 0 c-78 0 -127 4 -131 11 -4
6 -4 35 0 65 l6 54 125 0 124 0 0 -65z m-1127 37 c14 -6 8 -17 -43 -67 -33
-32 -61 -57 -64 -54 -2 2 -8 32 -12 67 l-7 62 54 -1 c30 0 62 -4 72 -7z m187
-49 c1 -27 7 -84 15 -128 8 -44 15 -85 15 -92 0 -6 -25 -25 -56 -43 -31 -17
-75 -49 -99 -71 l-44 -40 -27 43 c-29 46 -83 173 -84 198 0 8 37 52 82 97 l83
83 57 0 58 0 0 -47z m293 40 l157 -6 0 -87 0 -87 -120 -16 c-66 -10 -154 -28
-195 -41 -41 -13 -77 -21 -79 -17 -7 10 -24 119 -32 194 l-6 67 58 0 c33 0
130 -3 217 -7z m367 -43 l0 -40 -44 0 c-68 0 -76 -6 -76 -56 0 -44 0 -44 -35
-44 l-35 0 0 90 0 90 95 0 95 0 0 -40z m599 15 c6 -7 -17 -146 -34 -202 l-16
-53 -64 0 -64 0 -3 93 -3 92 -57 3 -58 3 0 41 0 41 147 -7 c81 -4 150 -9 152
-11z m-381 -95 l172 0 0 -82 0 -81 -172 6 c-95 4 -203 7 -240 7 l-68 0 0 81 0
82 68 -6 c37 -4 145 -7 240 -7z m-428 -120 c0 -24 -5 -29 -27 -32 l-28 -3 -3
-151 -3 -151 -47 -18 c-26 -10 -57 -24 -69 -31 -21 -13 -25 -11 -58 33 -43 58
-132 235 -141 280 -6 29 -3 34 22 44 81 31 321 74 347 61 4 -2 7 -16 7 -32z
m90 5 c0 -33 -2 -35 -35 -35 -33 0 -35 2 -35 35 0 33 2 35 35 35 33 0 35 -2
35 -35z m-466 -147 c32 -90 98 -200 167 -280 27 -31 49 -61 49 -67 0 -15 -112
27 -191 71 -35 20 -89 58 -120 85 -56 47 -129 128 -129 142 0 25 177 149 190
134 4 -5 19 -42 34 -85z m1003 72 l124 0 -3 -132 c-2 -82 -7 -132 -13 -131 -5
1 -93 33 -194 70 l-184 68 -194 -67 -193 -66 0 111 c0 62 -3 123 -7 136 l-6
24 273 -6 c150 -4 329 -7 397 -7z"/>
<path d="M1453 1747 c-52 -53 -64 -70 -55 -79 10 -10 27 2 79 55 53 52 65 69
55 79 -9 9 -26 -3 -79 -55z"/>
<path d="M197 1930 c-59 -60 -107 -115 -107 -120 0 -24 30 -6 85 53 139 145
149 157 139 167 -8 8 -44 -23 -117 -100z"/>
<path d="M486 1920 c-59 -61 -69 -97 -17 -61 27 20 101 104 101 115 0 20 -35
-2 -84 -54z"/>
<path d="M2240 157 c-8 -7 -27 -31 -43 -54 -15 -24 -34 -43 -42 -43 -8 0 -28
20 -45 45 -51 74 -108 71 -159 -8 -21 -32 -30 -38 -55 -35 -25 2 -35 11 -48
40 -21 44 -54 56 -98 38 -17 -7 -38 -26 -47 -41 -24 -40 -54 -37 -87 6 -52 68
-93 65 -138 -11 -22 -37 -56 -45 -78 -19 -16 19 -30 19 -30 0 0 -22 45 -47 77
-43 19 2 36 15 56 46 16 23 35 42 44 42 8 0 32 -18 52 -39 55 -60 73 -61 126
-6 52 53 73 55 96 7 19 -42 35 -52 82 -52 33 0 41 5 69 45 42 59 65 66 96 29
13 -16 33 -39 43 -51 21 -25 57 -30 81 -10 8 6 25 28 37 49 31 53 72 61 86 17
13 -39 56 -79 86 -79 31 0 69 30 69 55 0 21 -14 19 -35 -5 -26 -29 -57 -21
-77 18 -34 68 -79 91 -118 59z"/>
</g>
</svg>
